<?xml version="1.0" encoding="UTF-8" standalone="no"?>
<!DOCTYPE svg PUBLIC "-//W3C//DTD SVG 1.1//EN"
"http://www.w3.org/Graphics/SVG/1.1/DTD/svg11.dtd">


<!-- Page 1 -->
<svg x="0" y="0" width="346" height="346" viewBox="0 0 346 346" version="1.1" xmlns="http://www.w3.org/2000/svg" xmlns:xlink="http://www.w3.org/1999/xlink"
style="display: block;margin-left: auto;margin-right: auto;">
<defs>

<style type="text/css"><![CDATA[

.g1_1{
fill: #FFFFFF;
}
.g2_1{
}
.g3_1{
fill: #7F7F7F;
}
.g4_1{
fill: none;
stroke: #7F7F7F;
stroke-width: 0.3044097;
stroke-linecap: butt;
stroke-linejoin: miter;
}
.g5_1{
fill: none;
stroke: #000000;
stroke-width: 0.6088194;
stroke-linecap: butt;
stroke-linejoin: miter;
}
.g6_1{
fill: none;
stroke: #000000;
stroke-width: 0.48704025;
stroke-linecap: round;
stroke-linejoin: round;
}
.g7_1{
fill: none;
stroke: #000000;
stroke-width: 0.34439594;
stroke-linecap: round;
stroke-linejoin: round;
}
.g8_1{
fill: none;
stroke: #000000;
stroke-width: 0.3443862;
stroke-linecap: round;
stroke-linejoin: round;
}

.s1_1{
font-size: 7.61px;
font-family: CMR5_7;
fill: #000000;
}

]]></style>

</defs>
<path d="M0,0
L0,346
L346,346
L346,0 Z " 
fill="#FFFFFF" stroke="none" />
<path d="M20,326.6L20,317l9.5,0l0,9.6Z" class="g1_1" />
<path d="M20,317l0,-9.5l9.5,0l0,9.5Z" class="g1_1" />
<path d="M20,307.5L20,298l9.5,0l0,9.5Z" class="g1_1" />
<path d="M20,298l0,-9.5l9.5,0l0,9.5Z" class="g1_1" />
<path d="M20,288.5l0,-9.6l9.5,0l0,9.6Z" class="g1_1" />
<path d="M20,278.9l0,-9.5l9.5,0l0,9.5Z" class="g1_1" />
<path d="M20,269.4l0,-9.5l9.5,0l0,9.5Z" class="g1_1" />
<path d="M20,259.9l0,-9.6l9.5,0l0,9.6Z" class="g1_1" />
<path d="M20,250.3l0,-9.5l9.5,0l0,9.5Z" class="g1_1" />
<path d="M20,240.8l0,-9.5l9.5,0l0,9.5Z" class="g1_1" />
<path d="M20,231.3l0,-9.5l9.5,0l0,9.5Z" class="g1_1" />
<path d="M20,221.8l0,-9.6l9.5,0l0,9.6Z" class="g1_1" />
<path d="M20,212.2l0,-9.5l9.5,0l0,9.5Z" class="g1_1" />
<path d="M20,202.7l0,-9.5l9.5,0l0,9.5Z" class="g1_1" />
<path d="M20,193.2l0,-9.5l9.5,0l0,9.5Z" class="g1_1" />
<path d="M20,183.7l0,-9.6l9.5,0l0,9.6Z" class="g1_1" />
<path d="M20,174.1l0,-9.5l9.5,0l0,9.5Z" class="g1_1" />
<path d="M20,164.6l0,-9.5l9.5,0l0,9.5Z" class="g1_1" />
<path d="M20,155.1l0,-9.6l9.5,0l0,9.6Z" class="g1_1" />
<path d="M20,145.5L20,136l9.5,0l0,9.5Z" class="g1_1" />
<path d="M20,136l0,-9.5l9.5,0l0,9.5Z" class="g1_1" />
<path d="M20,126.5L20,117l9.5,0l0,9.5Z" class="g1_1" />
<path d="M20,117l0,-9.6l9.5,0l0,9.6Z" class="g1_1" />
<path d="M20,107.4l0,-9.5l9.5,0l0,9.5Z" class="g1_1" />
<path d="M20,97.9l0,-9.5l9.5,0l0,9.5Z" class="g1_1" />
<path d="M20,88.4l0,-9.6l9.5,0l0,9.6Z" class="g1_1" />
<path d="M20,78.8l0,-9.5l9.5,0l0,9.5Z" class="g1_1" />
<path d="M20,69.3l0,-9.5l9.5,0l0,9.5Z" class="g1_1" />
<path d="M20,59.8l0,-9.5l9.5,0l0,9.5Z" class="g1_1" />
<path d="M20,50.3l0,-9.6l9.5,0l0,9.6Z" class="g1_1" />
<path d="M20,40.7l0,-9.5l9.5,0l0,9.5Z" class="g1_1" />
<path d="M20,31.2l0,-9.5l9.5,0l0,9.5Z" class="g1_1" />
<path d="M29.5,326.6l0,-9.6l9.6,0l0,9.6Z" class="g1_1" />
<path d="M29.5,317l0,-9.5l9.6,0l0,9.5Z" class="g1_1" />
<path d="M29.5,307.5l0,-9.5l9.6,0l0,9.5Z" class="g1_1" />
<path d="M29.5,298l0,-9.5l9.6,0l0,9.5Z" class="g1_1" />
<path d="M29.5,288.5l0,-9.6l9.6,0l0,9.6Z" class="g1_1" />
<path d="M29.5,278.9l0,-9.5l9.6,0l0,9.5Z" class="g1_1" />
<path d="M29.5,269.4l0,-9.5l9.6,0l0,9.5Z" class="g1_1" />
<path d="M29.5,259.9l0,-9.6l9.6,0l0,9.6Z" class="g1_1" />
<path d="M29.5,250.3l0,-9.5l9.6,0l0,9.5Z" class="g1_1" />
<path d="M29.5,240.8l0,-9.5l9.6,0l0,9.5Z" class="g1_1" />
<path d="M29.5,231.3l0,-9.5l9.6,0l0,9.5Z" class="g1_1" />
<path d="M29.5,221.8l0,-9.6l9.6,0l0,9.6Z" class="g1_1" />
<path d="M29.5,212.2l0,-9.5l9.6,0l0,9.5Z" class="g1_1" />
<path d="M29.5,202.7l0,-9.5l9.6,0l0,9.5Z" class="g1_1" />
<path d="M29.5,193.2l0,-9.5l9.6,0l0,9.5Z" class="g1_1" />
<path d="M29.5,183.7l0,-9.6l9.6,0l0,9.6Z" class="g1_1" />
<path d="M29.5,174.1l0,-9.5l9.6,0l0,9.5Z" class="g1_1" />
<path d="M29.5,164.6l0,-9.5l9.6,0l0,9.5Z" class="g1_1" />
<path d="M29.5,155.1l0,-9.6l9.6,0l0,9.6Z" class="g1_1" />
<path d="M29.5,145.5l0,-9.5l9.6,0l0,9.5Z" class="g1_1" />
<path d="M29.5,136l0,-9.5l9.6,0l0,9.5Z" class="g1_1" />
<path d="M29.5,126.5l0,-9.5l9.6,0l0,9.5Z" class="g1_1" />
<path d="M29.5,117l0,-9.6l9.6,0l0,9.6Z" class="g1_1" />
<path d="M29.5,107.4l0,-9.5l9.6,0l0,9.5Z" class="g1_1" />
<path d="M29.5,97.9l0,-9.5l9.6,0l0,9.5Z" class="g1_1" />
<path d="M29.5,88.4l0,-9.6l9.6,0l0,9.6Z" class="g1_1" />
<path d="M29.5,78.8l0,-9.5l9.6,0l0,9.5Z" class="g1_1" />
<path d="M29.5,69.3l0,-9.5l9.6,0l0,9.5Z" class="g1_1" />
<path d="M29.5,59.8l0,-9.5l9.6,0l0,9.5Z" class="g1_1" />
<path d="M29.5,50.3l0,-9.6l9.6,0l0,9.6Z" class="g1_1" />
<path d="M29.5,40.7l0,-9.5l9.6,0l0,9.5Z" class="g1_1" />
<path d="M29.5,31.2l0,-9.5l9.6,0l0,9.5Z" class="g1_1" />
<path d="M39.1,326.6l0,-9.6l9.5,0l0,9.6Z" class="g2_1" />
<path d="M39.1,317l0,-9.5l9.5,0l0,9.5Z" class="g3_1" />
<path d="M39.1,307.5l0,-9.5l9.5,0l0,9.5Z" class="g1_1" />
<path d="M39.1,298l0,-9.5l9.5,0l0,9.5Z" class="g1_1" />
<path d="M39.1,288.5l0,-9.6l9.5,0l0,9.6Z" class="g1_1" />
<path d="M39.1,278.9l0,-9.5l9.5,0l0,9.5Z" class="g1_1" />
<path d="M39.1,269.4l0,-9.5l9.5,0l0,9.5Z" class="g1_1" />
<path d="M39.1,259.9l0,-9.6l9.5,0l0,9.6Z" class="g1_1" />
<path d="M39.1,250.3l0,-9.5l9.5,0l0,9.5Z" class="g1_1" />
<path d="M39.1,240.8l0,-9.5l9.5,0l0,9.5Z" class="g1_1" />
<path d="M39.1,231.3l0,-9.5l9.5,0l0,9.5Z" class="g1_1" />
<path d="M39.1,221.8l0,-9.6l9.5,0l0,9.6Z" class="g1_1" />
<path d="M39.1,212.2l0,-9.5l9.5,0l0,9.5Z" class="g1_1" />
<path d="M39.1,202.7l0,-9.5l9.5,0l0,9.5Z" class="g1_1" />
<path d="M39.1,193.2l0,-9.5l9.5,0l0,9.5Z" class="g1_1" />
<path d="M39.1,183.7l0,-9.6l9.5,0l0,9.6Z" class="g1_1" />
<path d="M39.1,174.1l0,-9.5l9.5,0l0,9.5Z" class="g1_1" />
<path d="M39.1,164.6l0,-9.5l9.5,0l0,9.5Z" class="g1_1" />
<path d="M39.1,155.1l0,-9.6l9.5,0l0,9.6Z" class="g1_1" />
<path d="M39.1,145.5l0,-9.5l9.5,0l0,9.5Z" class="g1_1" />
<path d="M39.1,136l0,-9.5l9.5,0l0,9.5Z" class="g1_1" />
<path d="M39.1,126.5l0,-9.5l9.5,0l0,9.5Z" class="g1_1" />
<path d="M39.1,117l0,-9.6l9.5,0l0,9.6Z" class="g1_1" />
<path d="M39.1,107.4l0,-9.5l9.5,0l0,9.5Z" class="g1_1" />
<path d="M39.1,97.9l0,-9.5l9.5,0l0,9.5Z" class="g1_1" />
<path d="M39.1,88.4l0,-9.6l9.5,0l0,9.6Z" class="g1_1" />
<path d="M39.1,78.8l0,-9.5l9.5,0l0,9.5Z" class="g1_1" />
<path d="M39.1,69.3l0,-9.5l9.5,0l0,9.5Z" class="g1_1" />
<path d="M39.1,59.8l0,-9.5l9.5,0l0,9.5Z" class="g1_1" />
<path d="M39.1,50.3l0,-9.6l9.5,0l0,9.6Z" class="g1_1" />
<path d="M39.1,40.7l0,-9.5l9.5,0l0,9.5Z" class="g1_1" />
<path d="M39.1,31.2l0,-9.5l9.5,0l0,9.5Z" class="g1_1" />
<path d="M48.6,326.6l0,-9.6l9.5,0l0,9.6Z" class="g2_1" />
<path d="M48.6,317l0,-9.5l9.5,0l0,9.5Z" class="g2_1" />
<path d="M48.6,307.5l0,-9.5l9.5,0l0,9.5Z" class="g2_1" />
<path d="M48.6,298l0,-9.5l9.5,0l0,9.5Z" class="g1_1" />
<path d="M48.6,288.5l0,-9.6l9.5,0l0,9.6Z" class="g1_1" />
<path d="M48.6,278.9l0,-9.5l9.5,0l0,9.5Z" class="g1_1" />
<path d="M48.6,269.4l0,-9.5l9.5,0l0,9.5Z" class="g1_1" />
<path d="M48.6,259.9l0,-9.6l9.5,0l0,9.6Z" class="g1_1" />
<path d="M48.6,250.3l0,-9.5l9.5,0l0,9.5Z" class="g1_1" />
<path d="M48.6,240.8l0,-9.5l9.5,0l0,9.5Z" class="g1_1" />
<path d="M48.6,231.3l0,-9.5l9.5,0l0,9.5Z" class="g1_1" />
<path d="M48.6,221.8l0,-9.6l9.5,0l0,9.6Z" class="g1_1" />
<path d="M48.6,212.2l0,-9.5l9.5,0l0,9.5Z" class="g1_1" />
<path d="M48.6,202.7l0,-9.5l9.5,0l0,9.5Z" class="g1_1" />
<path d="M48.6,193.2l0,-9.5l9.5,0l0,9.5Z" class="g1_1" />
<path d="M48.6,183.7l0,-9.6l9.5,0l0,9.6Z" class="g1_1" />
<path d="M48.6,174.1l0,-9.5l9.5,0l0,9.5Z" class="g1_1" />
<path d="M48.6,164.6l0,-9.5l9.5,0l0,9.5Z" class="g1_1" />
<path d="M48.6,155.1l0,-9.6l9.5,0l0,9.6Z" class="g1_1" />
<path d="M48.6,145.5l0,-9.5l9.5,0l0,9.5Z" class="g1_1" />
<path d="M48.6,136l0,-9.5l9.5,0l0,9.5Z" class="g1_1" />
<path d="M48.6,126.5l0,-9.5l9.5,0l0,9.5Z" class="g1_1" />
<path d="M48.6,117l0,-9.6l9.5,0l0,9.6Z" class="g1_1" />
<path d="M48.6,107.4l0,-9.5l9.5,0l0,9.5Z" class="g1_1" />
<path d="M48.6,97.9l0,-9.5l9.5,0l0,9.5Z" class="g1_1" />
<path d="M48.6,88.4l0,-9.6l9.5,0l0,9.6Z" class="g1_1" />
<path d="M48.6,78.8l0,-9.5l9.5,0l0,9.5Z" class="g1_1" />
<path d="M48.6,69.3l0,-9.5l9.5,0l0,9.5Z" class="g1_1" />
<path d="M48.6,59.8l0,-9.5l9.5,0l0,9.5Z" class="g1_1" />
<path d="M48.6,50.3l0,-9.6l9.5,0l0,9.6Z" class="g1_1" />
<path d="M48.6,40.7l0,-9.5l9.5,0l0,9.5Z" class="g1_1" />
<path d="M48.6,31.2l0,-9.5l9.5,0l0,9.5Z" class="g1_1" />
<path d="M58.1,326.6l0,-9.6l9.5,0l0,9.6Z" class="g2_1" />
<path d="M58.1,317l0,-9.5l9.5,0l0,9.5Z" class="g2_1" />
<path d="M58.1,307.5l0,-9.5l9.5,0l0,9.5Z" class="g2_1" />
<path d="M58.1,298l0,-9.5l9.5,0l0,9.5Z" class="g2_1" />
<path d="M58.1,288.5l0,-9.6l9.5,0l0,9.6Z" class="g1_1" />
<path d="M58.1,278.9l0,-9.5l9.5,0l0,9.5Z" class="g1_1" />
<path d="M58.1,269.4l0,-9.5l9.5,0l0,9.5Z" class="g1_1" />
<path d="M58.1,259.9l0,-9.6l9.5,0l0,9.6Z" class="g1_1" />
<path d="M58.1,250.3l0,-9.5l9.5,0l0,9.5Z" class="g1_1" />
<path d="M58.1,240.8l0,-9.5l9.5,0l0,9.5Z" class="g1_1" />
<path d="M58.1,231.3l0,-9.5l9.5,0l0,9.5Z" class="g1_1" />
<path d="M58.1,221.8l0,-9.6l9.5,0l0,9.6Z" class="g1_1" />
<path d="M58.1,212.2l0,-9.5l9.5,0l0,9.5Z" class="g1_1" />
<path d="M58.1,202.7l0,-9.5l9.5,0l0,9.5Z" class="g1_1" />
<path d="M58.1,193.2l0,-9.5l9.5,0l0,9.5Z" class="g1_1" />
<path d="M58.1,183.7l0,-9.6l9.5,0l0,9.6Z" class="g1_1" />
<path d="M58.1,174.1l0,-9.5l9.5,0l0,9.5Z" class="g1_1" />
<path d="M58.1,164.6l0,-9.5l9.5,0l0,9.5Z" class="g1_1" />
<path d="M58.1,155.1l0,-9.6l9.5,0l0,9.6Z" class="g1_1" />
<path d="M58.1,145.5l0,-9.5l9.5,0l0,9.5Z" class="g1_1" />
<path d="M58.1,136l0,-9.5l9.5,0l0,9.5Z" class="g1_1" />
<path d="M58.1,126.5l0,-9.5l9.5,0l0,9.5Z" class="g1_1" />
<path d="M58.1,117l0,-9.6l9.5,0l0,9.6Z" class="g1_1" />
<path d="M58.1,107.4l0,-9.5l9.5,0l0,9.5Z" class="g1_1" />
<path d="M58.1,97.9l0,-9.5l9.5,0l0,9.5Z" class="g1_1" />
<path d="M58.1,88.4l0,-9.6l9.5,0l0,9.6Z" class="g1_1" />
<path d="M58.1,78.8l0,-9.5l9.5,0l0,9.5Z" class="g1_1" />
<path d="M58.1,69.3l0,-9.5l9.5,0l0,9.5Z" class="g1_1" />
<path d="M58.1,59.8l0,-9.5l9.5,0l0,9.5Z" class="g1_1" />
<path d="M58.1,50.3l0,-9.6l9.5,0l0,9.6Z" class="g1_1" />
<path d="M58.1,40.7l0,-9.5l9.5,0l0,9.5Z" class="g1_1" />
<path d="M58.1,31.2l0,-9.5l9.5,0l0,9.5Z" class="g1_1" />
<path d="M67.6,326.6l0,-9.6l9.6,0l0,9.6Z" class="g1_1" />
<path d="M67.6,317l0,-9.5l9.6,0l0,9.5Z" class="g2_1" />
<path d="M67.6,307.5l0,-9.5l9.6,0l0,9.5Z" class="g2_1" />
<path d="M67.6,298l0,-9.5l9.6,0l0,9.5Z" class="g2_1" />
<path d="M67.6,288.5l0,-9.6l9.6,0l0,9.6Z" class="g2_1" />
<path d="M67.6,278.9l0,-9.5l9.6,0l0,9.5Z" class="g2_1" />
<path d="M67.6,269.4l0,-9.5l9.6,0l0,9.5Z" class="g1_1" />
<path d="M67.6,259.9l0,-9.6l9.6,0l0,9.6Z" class="g1_1" />
<path d="M67.6,250.3l0,-9.5l9.6,0l0,9.5Z" class="g1_1" />
<path d="M67.6,240.8l0,-9.5l9.6,0l0,9.5Z" class="g1_1" />
<path d="M67.6,231.3l0,-9.5l9.6,0l0,9.5Z" class="g1_1" />
<path d="M67.6,221.8l0,-9.6l9.6,0l0,9.6Z" class="g2_1" />
<path d="M67.6,212.2l0,-9.5l9.6,0l0,9.5Z" class="g2_1" />
<path d="M67.6,202.7l0,-9.5l9.6,0l0,9.5Z" class="g2_1" />
<path d="M67.6,193.2l0,-9.5l9.6,0l0,9.5Z" class="g2_1" />
<path d="M67.6,183.7l0,-9.6l9.6,0l0,9.6Z" class="g2_1" />
<path d="M67.6,174.1l0,-9.5l9.6,0l0,9.5Z" class="g2_1" />
<path d="M67.6,164.6l0,-9.5l9.6,0l0,9.5Z" class="g2_1" />
<path d="M67.6,155.1l0,-9.6l9.6,0l0,9.6Z" class="g2_1" />
<path d="M67.6,145.5l0,-9.5l9.6,0l0,9.5Z" class="g2_1" />
<path d="M67.6,136l0,-9.5l9.6,0l0,9.5Z" class="g2_1" />
<path d="M67.6,126.5l0,-9.5l9.6,0l0,9.5Z" class="g2_1" />
<path d="M67.6,117l0,-9.6l9.6,0l0,9.6Z" class="g2_1" />
<path d="M67.6,107.4l0,-9.5l9.6,0l0,9.5Z" class="g2_1" />
<path d="M67.6,97.9l0,-9.5l9.6,0l0,9.5Z" class="g1_1" />
<path d="M67.6,88.4l0,-9.6l9.6,0l0,9.6Z" class="g1_1" />
<path d="M67.6,78.8l0,-9.5l9.6,0l0,9.5Z" class="g1_1" />
<path d="M67.6,69.3l0,-9.5l9.6,0l0,9.5Z" class="g1_1" />
<path d="M67.6,59.8l0,-9.5l9.6,0l0,9.5Z" class="g1_1" />
<path d="M67.6,50.3l0,-9.6l9.6,0l0,9.6Z" class="g1_1" />
<path d="M67.6,40.7l0,-9.5l9.6,0l0,9.5Z" class="g1_1" />
<path d="M67.6,31.2l0,-9.5l9.6,0l0,9.5Z" class="g1_1" />
<path d="M77.2,326.6l0,-9.6l9.5,0l0,9.6Z" class="g1_1" />
<path d="M77.2,317l0,-9.5l9.5,0l0,9.5Z" class="g1_1" />
<path d="M77.2,307.5l0,-9.5l9.5,0l0,9.5Z" class="g3_1" />
<path d="M77.2,298l0,-9.5l9.5,0l0,9.5Z" class="g2_1" />
<path d="M77.2,288.5l0,-9.6l9.5,0l0,9.6Z" class="g2_1" />
<path d="M77.2,278.9l0,-9.5l9.5,0l0,9.5Z" class="g2_1" />
<path d="M77.2,269.4l0,-9.5l9.5,0l0,9.5Z" class="g2_1" />
<path d="M77.2,259.9l0,-9.6l9.5,0l0,9.6Z" class="g2_1" />
<path d="M77.2,250.3l0,-9.5l9.5,0l0,9.5Z" class="g2_1" />
<path d="M77.2,240.8l0,-9.5l9.5,0l0,9.5Z" class="g2_1" />
<path d="M77.2,231.3l0,-9.5l9.5,0l0,9.5Z" class="g2_1" />
<path d="M77.2,221.8l0,-9.6l9.5,0l0,9.6Z" class="g2_1" />
<path d="M77.2,212.2l0,-9.5l9.5,0l0,9.5Z" class="g2_1" />
<path d="M77.2,202.7l0,-9.5l9.5,0l0,9.5Z" class="g2_1" />
<path d="M77.2,193.2l0,-9.5l9.5,0l0,9.5Z" class="g2_1" />
<path d="M77.2,183.7l0,-9.6l9.5,0l0,9.6Z" class="g2_1" />
<path d="M77.2,174.1l0,-9.5l9.5,0l0,9.5Z" class="g2_1" />
<path d="M77.2,164.6l0,-9.5l9.5,0l0,9.5Z" class="g2_1" />
<path d="M77.2,155.1l0,-9.6l9.5,0l0,9.6Z" class="g2_1" />
<path d="M77.2,145.5l0,-9.5l9.5,0l0,9.5Z" class="g2_1" />
<path d="M77.2,136l0,-9.5l9.5,0l0,9.5Z" class="g2_1" />
<path d="M77.2,126.5l0,-9.5l9.5,0l0,9.5Z" class="g2_1" />
<path d="M77.2,117l0,-9.6l9.5,0l0,9.6Z" class="g2_1" />
<path d="M77.2,107.4l0,-9.5l9.5,0l0,9.5Z" class="g2_1" />
<path d="M77.2,97.9l0,-9.5l9.5,0l0,9.5Z" class="g2_1" />
<path d="M77.2,88.4l0,-9.6l9.5,0l0,9.6Z" class="g2_1" />
<path d="M77.2,78.8l0,-9.5l9.5,0l0,9.5Z" class="g2_1" />
<path d="M77.2,69.3l0,-9.5l9.5,0l0,9.5Z" class="g1_1" />
<path d="M77.2,59.8l0,-9.5l9.5,0l0,9.5Z" class="g1_1" />
<path d="M77.2,50.3l0,-9.6l9.5,0l0,9.6Z" class="g1_1" />
<path d="M77.2,40.7l0,-9.5l9.5,0l0,9.5Z" class="g1_1" />
<path d="M77.2,31.2l0,-9.5l9.5,0l0,9.5Z" class="g1_1" />
<path d="M86.7,326.6l0,-9.6l9.5,0l0,9.6Z" class="g1_1" />
<path d="M86.7,317l0,-9.5l9.5,0l0,9.5Z" class="g1_1" />
<path d="M86.7,307.5l0,-9.5l9.5,0l0,9.5Z" class="g1_1" />
<path d="M86.7,298l0,-9.5l9.5,0l0,9.5Z" class="g1_1" />
<path d="M86.7,288.5l0,-9.6l9.5,0l0,9.6Z" class="g2_1" />
<path d="M86.7,278.9l0,-9.5l9.5,0l0,9.5Z" class="g2_1" />
<path d="M86.7,269.4l0,-9.5l9.5,0l0,9.5Z" class="g2_1" />
<path d="M86.7,259.9l0,-9.6l9.5,0l0,9.6Z" class="g2_1" />
<path d="M86.7,250.3l0,-9.5l9.5,0l0,9.5Z" class="g2_1" />
<path d="M86.7,240.8l0,-9.5l9.5,0l0,9.5Z" class="g3_1" />
<path d="M86.7,231.3l0,-9.5l9.5,0l0,9.5Z" class="g3_1" />
<path d="M86.7,221.8l0,-9.6l9.5,0l0,9.6Z" class="g2_1" />
<path d="M86.7,212.2l0,-9.5l9.5,0l0,9.5Z" class="g3_1" />
<path d="M86.7,202.7l0,-9.5l9.5,0l0,9.5Z" class="g1_1" />
<path d="M86.7,193.2l0,-9.5l9.5,0l0,9.5Z" class="g1_1" />
<path d="M86.7,183.7l0,-9.6l9.5,0l0,9.6Z" class="g1_1" />
<path d="M86.7,174.1l0,-9.5l9.5,0l0,9.5Z" class="g1_1" />
<path d="M86.7,164.6l0,-9.5l9.5,0l0,9.5Z" class="g1_1" />
<path d="M86.7,155.1l0,-9.6l9.5,0l0,9.6Z" class="g3_1" />
<path d="M86.7,145.5l0,-9.5l9.5,0l0,9.5Z" class="g2_1" />
<path d="M86.7,136l0,-9.5l9.5,0l0,9.5Z" class="g2_1" />
<path d="M86.7,126.5l0,-9.5l9.5,0l0,9.5Z" class="g2_1" />
<path d="M86.7,117l0,-9.6l9.5,0l0,9.6Z" class="g2_1" />
<path d="M86.7,107.4l0,-9.5l9.5,0l0,9.5Z" class="g2_1" />
<path d="M86.7,97.9l0,-9.5l9.5,0l0,9.5Z" class="g2_1" />
<path d="M86.7,88.4l0,-9.6l9.5,0l0,9.6Z" class="g2_1" />
<path d="M86.7,78.8l0,-9.5l9.5,0l0,9.5Z" class="g2_1" />
<path d="M86.7,69.3l0,-9.5l9.5,0l0,9.5Z" class="g2_1" />
<path d="M86.7,59.8l0,-9.5l9.5,0l0,9.5Z" class="g1_1" />
<path d="M86.7,50.3l0,-9.6l9.5,0l0,9.6Z" class="g1_1" />
<path d="M86.7,40.7l0,-9.5l9.5,0l0,9.5Z" class="g1_1" />
<path d="M86.7,31.2l0,-9.5l9.5,0l0,9.5Z" class="g1_1" />
<path d="M96.2,326.6l0,-9.6l9.5,0l0,9.6Z" class="g1_1" />
<path d="M96.2,317l0,-9.5l9.5,0l0,9.5Z" class="g1_1" />
<path d="M96.2,307.5l0,-9.5l9.5,0l0,9.5Z" class="g1_1" />
<path d="M96.2,298l0,-9.5l9.5,0l0,9.5Z" class="g1_1" />
<path d="M96.2,288.5l0,-9.6l9.5,0l0,9.6Z" class="g1_1" />
<path d="M96.2,278.9l0,-9.5l9.5,0l0,9.5Z" class="g1_1" />
<path d="M96.2,269.4l0,-9.5l9.5,0l0,9.5Z" class="g1_1" />
<path d="M96.2,259.9l0,-9.6l9.5,0l0,9.6Z" class="g2_1" />
<path d="M96.2,250.3l0,-9.5l9.5,0l0,9.5Z" class="g3_1" />
<path d="M96.2,240.8l0,-9.5l9.5,0l0,9.5Z" class="g3_1" />
<path d="M96.2,231.3l0,-9.5l9.5,0l0,9.5Z" class="g3_1" />
<path d="M96.2,221.8l0,-9.6l9.5,0l0,9.6Z" class="g3_1" />
<path d="M96.2,212.2l0,-9.5l9.5,0l0,9.5Z" class="g1_1" />
<path d="M96.2,202.7l0,-9.5l9.5,0l0,9.5Z" class="g3_1" />
<path d="M96.2,193.2l0,-9.5l9.5,0l0,9.5Z" class="g2_1" />
<path d="M96.2,183.7l0,-9.6l9.5,0l0,9.6Z" class="g2_1" />
<path d="M96.2,174.1l0,-9.5l9.5,0l0,9.5Z" class="g2_1" />
<path d="M96.2,164.6l0,-9.5l9.5,0l0,9.5Z" class="g2_1" />
<path d="M96.2,155.1l0,-9.6l9.5,0l0,9.6Z" class="g1_1" />
<path d="M96.2,145.5l0,-9.5l9.5,0l0,9.5Z" class="g3_1" />
<path d="M96.2,136l0,-9.5l9.5,0l0,9.5Z" class="g2_1" />
<path d="M96.2,126.5l0,-9.5l9.5,0l0,9.5Z" class="g2_1" />
<path d="M96.2,117l0,-9.6l9.5,0l0,9.6Z" class="g2_1" />
<path d="M96.2,107.4l0,-9.5l9.5,0l0,9.5Z" class="g2_1" />
<path d="M96.2,97.9l0,-9.5l9.5,0l0,9.5Z" class="g2_1" />
<path d="M96.2,88.4l0,-9.6l9.5,0l0,9.6Z" class="g2_1" />
<path d="M96.2,78.8l0,-9.5l9.5,0l0,9.5Z" class="g2_1" />
<path d="M96.2,69.3l0,-9.5l9.5,0l0,9.5Z" class="g2_1" />
<path d="M96.2,59.8l0,-9.5l9.5,0l0,9.5Z" class="g2_1" />
<path d="M96.2,50.3l0,-9.6l9.5,0l0,9.6Z" class="g1_1" />
<path d="M96.2,40.7l0,-9.5l9.5,0l0,9.5Z" class="g1_1" />
<path d="M96.2,31.2l0,-9.5l9.5,0l0,9.5Z" class="g1_1" />
<path d="M105.7,326.6l0,-9.6l9.6,0l0,9.6Z" class="g1_1" />
<path d="M105.7,317l0,-9.5l9.6,0l0,9.5Z" class="g1_1" />
<path d="M105.7,307.5l0,-9.5l9.6,0l0,9.5Z" class="g1_1" />
<path d="M105.7,298l0,-9.5l9.6,0l0,9.5Z" class="g1_1" />
<path d="M105.7,288.5l0,-9.6l9.6,0l0,9.6Z" class="g1_1" />
<path d="M105.7,278.9l0,-9.5l9.6,0l0,9.5Z" class="g1_1" />
<path d="M105.7,269.4l0,-9.5l9.6,0l0,9.5Z" class="g3_1" />
<path d="M105.7,259.9l0,-9.6l9.6,0l0,9.6Z" class="g2_1" />
<path d="M105.7,250.3l0,-9.5l9.6,0l0,9.5Z" class="g1_1" />
<path d="M105.7,240.8l0,-9.5l9.6,0l0,9.5Z" class="g3_1" />
<path d="M105.7,231.3l0,-9.5l9.6,0l0,9.5Z" class="g3_1" />
<path d="M105.7,221.8l0,-9.6l9.6,0l0,9.6Z" class="g3_1" />
<path d="M105.7,212.2l0,-9.5l9.6,0l0,9.5Z" class="g3_1" />
<path d="M105.7,202.7l0,-9.5l9.6,0l0,9.5Z" class="g2_1" />
<path d="M105.7,193.2l0,-9.5l9.6,0l0,9.5Z" class="g2_1" />
<path d="M105.7,183.7l0,-9.6l9.6,0l0,9.6Z" class="g2_1" />
<path d="M105.7,174.1l0,-9.5l9.6,0l0,9.5Z" class="g3_1" />
<path d="M105.7,164.6l0,-9.5l9.6,0l0,9.5Z" class="g2_1" />
<path d="M105.7,155.1l0,-9.6l9.6,0l0,9.6Z" class="g1_1" />
<path d="M105.7,145.5l0,-9.5l9.6,0l0,9.5Z" class="g1_1" />
<path d="M105.7,136l0,-9.5l9.6,0l0,9.5Z" class="g2_1" />
<path d="M105.7,126.5l0,-9.5l9.6,0l0,9.5Z" class="g2_1" />
<path d="M105.7,117l0,-9.6l9.6,0l0,9.6Z" class="g2_1" />
<path d="M105.7,107.4l0,-9.5l9.6,0l0,9.5Z" class="g2_1" />
<path d="M105.7,97.9l0,-9.5l9.6,0l0,9.5Z" class="g2_1" />
<path d="M105.7,88.4l0,-9.6l9.6,0l0,9.6Z" class="g2_1" />
<path d="M105.7,78.8l0,-9.5l9.6,0l0,9.5Z" class="g2_1" />
<path d="M105.7,69.3l0,-9.5l9.6,0l0,9.5Z" class="g2_1" />
<path d="M105.7,59.8l0,-9.5l9.6,0l0,9.5Z" class="g2_1" />
<path d="M105.7,50.3l0,-9.6l9.6,0l0,9.6Z" class="g2_1" />
<path d="M105.7,40.7l0,-9.5l9.6,0l0,9.5Z" class="g1_1" />
<path d="M105.7,31.2l0,-9.5l9.6,0l0,9.5Z" class="g1_1" />
<path d="M115.3,326.6l0,-9.6l9.5,0l0,9.6Z" class="g1_1" />
<path d="M115.3,317l0,-9.5l9.5,0l0,9.5Z" class="g1_1" />
<path d="M115.3,307.5l0,-9.5l9.5,0l0,9.5Z" class="g1_1" />
<path d="M115.3,298l0,-9.5l9.5,0l0,9.5Z" class="g1_1" />
<path d="M115.3,288.5l0,-9.6l9.5,0l0,9.6Z" class="g1_1" />
<path d="M115.3,278.9l0,-9.5l9.5,0l0,9.5Z" class="g2_1" />
<path d="M115.3,269.4l0,-9.5l9.5,0l0,9.5Z" class="g3_1" />
<path d="M115.3,259.9l0,-9.6l9.5,0l0,9.6Z" class="g1_1" />
<path d="M115.3,250.3l0,-9.5l9.5,0l0,9.5Z" class="g1_1" />
<path d="M115.3,240.8l0,-9.5l9.5,0l0,9.5Z" class="g1_1" />
<path d="M115.3,231.3l0,-9.5l9.5,0l0,9.5Z" class="g1_1" />
<path d="M115.3,221.8l0,-9.6l9.5,0l0,9.6Z" class="g1_1" />
<path d="M115.3,212.2l0,-9.5l9.5,0l0,9.5Z" class="g1_1" />
<path d="M115.3,202.7l0,-9.5l9.5,0l0,9.5Z" class="g3_1" />
<path d="M115.3,193.2l0,-9.5l9.5,0l0,9.5Z" class="g2_1" />
<path d="M115.3,183.7l0,-9.6l9.5,0l0,9.6Z" class="g2_1" />
<path d="M115.3,174.1l0,-9.5l9.5,0l0,9.5Z" class="g3_1" />
<path d="M115.3,164.6l0,-9.5l9.5,0l0,9.5Z" class="g1_1" />
<path d="M115.3,155.1l0,-9.6l9.5,0l0,9.6Z" class="g1_1" />
<path d="M115.3,145.5l0,-9.5l9.5,0l0,9.5Z" class="g2_1" />
<path d="M115.3,136l0,-9.5l9.5,0l0,9.5Z" class="g2_1" />
<path d="M115.3,126.5l0,-9.5l9.5,0l0,9.5Z" class="g2_1" />
<path d="M115.3,117l0,-9.6l9.5,0l0,9.6Z" class="g2_1" />
<path d="M115.3,107.4l0,-9.5l9.5,0l0,9.5Z" class="g2_1" />
<path d="M115.3,97.9l0,-9.5l9.5,0l0,9.5Z" class="g2_1" />
<path d="M115.3,88.4l0,-9.6l9.5,0l0,9.6Z" class="g2_1" />
<path d="M115.3,78.8l0,-9.5l9.5,0l0,9.5Z" class="g2_1" />
<path d="M115.3,69.3l0,-9.5l9.5,0l0,9.5Z" class="g2_1" />
<path d="M115.3,59.8l0,-9.5l9.5,0l0,9.5Z" class="g2_1" />
<path d="M115.3,50.3l0,-9.6l9.5,0l0,9.6Z" class="g2_1" />
<path d="M115.3,40.7l0,-9.5l9.5,0l0,9.5Z" class="g2_1" />
<path d="M115.3,31.2l0,-9.5l9.5,0l0,9.5Z" class="g1_1" />
<path d="M124.8,326.6l0,-9.6l9.5,0l0,9.6Z" class="g1_1" />
<path d="M124.8,317l0,-9.5l9.5,0l0,9.5Z" class="g1_1" />
<path d="M124.8,307.5l0,-9.5l9.5,0l0,9.5Z" class="g1_1" />
<path d="M124.8,298l0,-9.5l9.5,0l0,9.5Z" class="g1_1" />
<path d="M124.8,288.5l0,-9.6l9.5,0l0,9.6Z" class="g3_1" />
<path d="M124.8,278.9l0,-9.5l9.5,0l0,9.5Z" class="g3_1" />
<path d="M124.8,269.4l0,-9.5l9.5,0l0,9.5Z" class="g1_1" />
<path d="M124.8,259.9l0,-9.6l9.5,0l0,9.6Z" class="g1_1" />
<path d="M124.8,250.3l0,-9.5l9.5,0l0,9.5Z" class="g1_1" />
<path d="M124.8,240.8l0,-9.5l9.5,0l0,9.5Z" class="g1_1" />
<path d="M124.8,231.3l0,-9.5l9.5,0l0,9.5Z" class="g1_1" />
<path d="M124.8,221.8l0,-9.6l9.5,0l0,9.6Z" class="g1_1" />
<path d="M124.8,212.2l0,-9.5l9.5,0l0,9.5Z" class="g1_1" />
<path d="M124.8,202.7l0,-9.5l9.5,0l0,9.5Z" class="g3_1" />
<path d="M124.8,193.2l0,-9.5l9.5,0l0,9.5Z" class="g3_1" />
<path d="M124.8,183.7l0,-9.6l9.5,0l0,9.6Z" class="g1_1" />
<path d="M124.8,174.1l0,-9.5l9.5,0l0,9.5Z" class="g1_1" />
<path d="M124.8,164.6l0,-9.5l9.5,0l0,9.5Z" class="g1_1" />
<path d="M124.8,155.1l0,-9.6l9.5,0l0,9.6Z" class="g2_1" />
<path d="M124.8,145.5l0,-9.5l9.5,0l0,9.5Z" class="g2_1" />
<path d="M124.8,136l0,-9.5l9.5,0l0,9.5Z" class="g2_1" />
<path d="M124.8,126.5l0,-9.5l9.5,0l0,9.5Z" class="g2_1" />
<path d="M124.8,117l0,-9.6l9.5,0l0,9.6Z" class="g2_1" />
<path d="M124.8,107.4l0,-9.5l9.5,0l0,9.5Z" class="g2_1" />
<path d="M124.8,97.9l0,-9.5l9.5,0l0,9.5Z" class="g2_1" />
<path d="M124.8,88.4l0,-9.6l9.5,0l0,9.6Z" class="g2_1" />
<path d="M124.8,78.8l0,-9.5l9.5,0l0,9.5Z" class="g2_1" />
<path d="M124.8,69.3l0,-9.5l9.5,0l0,9.5Z" class="g2_1" />
<path d="M124.8,59.8l0,-9.5l9.5,0l0,9.5Z" class="g2_1" />
<path d="M124.8,50.3l0,-9.6l9.5,0l0,9.6Z" class="g2_1" />
<path d="M124.8,40.7l0,-9.5l9.5,0l0,9.5Z" class="g2_1" />
<path d="M124.8,31.2l0,-9.5l9.5,0l0,9.5Z" class="g1_1" />
<path d="M134.3,326.6l0,-9.6l9.6,0l0,9.6Z" class="g1_1" />
<path d="M134.3,317l0,-9.5l9.6,0l0,9.5Z" class="g1_1" />
<path d="M134.3,307.5l0,-9.5l9.6,0l0,9.5Z" class="g1_1" />
<path d="M134.3,298l0,-9.5l9.6,0l0,9.5Z" class="g1_1" />
<path d="M134.3,288.5l0,-9.6l9.6,0l0,9.6Z" class="g2_1" />
<path d="M134.3,278.9l0,-9.5l9.6,0l0,9.5Z" class="g3_1" />
<path d="M134.3,269.4l0,-9.5l9.6,0l0,9.5Z" class="g3_1" />
<path d="M134.3,259.9l0,-9.6l9.6,0l0,9.6Z" class="g1_1" />
<path d="M134.3,250.3l0,-9.5l9.6,0l0,9.5Z" class="g1_1" />
<path d="M134.3,240.8l0,-9.5l9.6,0l0,9.5Z" class="g1_1" />
<path d="M134.3,231.3l0,-9.5l9.6,0l0,9.5Z" class="g1_1" />
<path d="M134.3,221.8l0,-9.6l9.6,0l0,9.6Z" class="g1_1" />
<path d="M134.3,212.2l0,-9.5l9.6,0l0,9.5Z" class="g1_1" />
<path d="M134.3,202.7l0,-9.5l9.6,0l0,9.5Z" class="g1_1" />
<path d="M134.3,193.2l0,-9.5l9.6,0l0,9.5Z" class="g3_1" />
<path d="M134.3,183.7l0,-9.6l9.6,0l0,9.6Z" class="g2_1" />
<path d="M134.3,174.1l0,-9.5l9.6,0l0,9.5Z" class="g2_1" />
<path d="M134.3,164.6l0,-9.5l9.6,0l0,9.5Z" class="g2_1" />
<path d="M134.3,155.1l0,-9.6l9.6,0l0,9.6Z" class="g2_1" />
<path d="M134.3,145.5l0,-9.5l9.6,0l0,9.5Z" class="g2_1" />
<path d="M134.3,136l0,-9.5l9.6,0l0,9.5Z" class="g2_1" />
<path d="M134.3,126.5l0,-9.5l9.6,0l0,9.5Z" class="g2_1" />
<path d="M134.3,117l0,-9.6l9.6,0l0,9.6Z" class="g2_1" />
<path d="M134.3,107.4l0,-9.5l9.6,0l0,9.5Z" class="g2_1" />
<path d="M134.3,97.9l0,-9.5l9.6,0l0,9.5Z" class="g2_1" />
<path d="M134.3,88.4l0,-9.6l9.6,0l0,9.6Z" class="g2_1" />
<path d="M134.3,78.8l0,-9.5l9.6,0l0,9.5Z" class="g2_1" />
<path d="M134.3,69.3l0,-9.5l9.6,0l0,9.5Z" class="g2_1" />
<path d="M134.3,59.8l0,-9.5l9.6,0l0,9.5Z" class="g2_1" />
<path d="M134.3,50.3l0,-9.6l9.6,0l0,9.6Z" class="g2_1" />
<path d="M134.3,40.7l0,-9.5l9.6,0l0,9.5Z" class="g2_1" />
<path d="M134.3,31.2l0,-9.5l9.6,0l0,9.5Z" class="g1_1" />
<path d="M143.9,326.6l0,-9.6l9.5,0l0,9.6Z" class="g1_1" />
<path d="M143.9,317l0,-9.5l9.5,0l0,9.5Z" class="g1_1" />
<path d="M143.9,307.5l0,-9.5l9.5,0l0,9.5Z" class="g1_1" />
<path d="M143.9,298l0,-9.5l9.5,0l0,9.5Z" class="g1_1" />
<path d="M143.9,288.5l0,-9.6l9.5,0l0,9.6Z" class="g2_1" />
<path d="M143.9,278.9l0,-9.5l9.5,0l0,9.5Z" class="g3_1" />
<path d="M143.9,269.4l0,-9.5l9.5,0l0,9.5Z" class="g3_1" />
<path d="M143.9,259.9l0,-9.6l9.5,0l0,9.6Z" class="g1_1" />
<path d="M143.9,250.3l0,-9.5l9.5,0l0,9.5Z" class="g1_1" />
<path d="M143.9,240.8l0,-9.5l9.5,0l0,9.5Z" class="g1_1" />
<path d="M143.9,231.3l0,-9.5l9.5,0l0,9.5Z" class="g1_1" />
<path d="M143.9,221.8l0,-9.6l9.5,0l0,9.6Z" class="g1_1" />
<path d="M143.9,212.2l0,-9.5l9.5,0l0,9.5Z" class="g1_1" />
<path d="M143.9,202.7l0,-9.5l9.5,0l0,9.5Z" class="g1_1" />
<path d="M143.9,193.2l0,-9.5l9.5,0l0,9.5Z" class="g3_1" />
<path d="M143.9,183.7l0,-9.6l9.5,0l0,9.6Z" class="g2_1" />
<path d="M143.9,174.1l0,-9.5l9.5,0l0,9.5Z" class="g2_1" />
<path d="M143.9,164.6l0,-9.5l9.5,0l0,9.5Z" class="g2_1" />
<path d="M143.9,155.1l0,-9.6l9.5,0l0,9.6Z" class="g2_1" />
<path d="M143.9,145.5l0,-9.5l9.5,0l0,9.5Z" class="g2_1" />
<path d="M143.9,136l0,-9.5l9.5,0l0,9.5Z" class="g2_1" />
<path d="M143.9,126.5l0,-9.5l9.5,0l0,9.5Z" class="g2_1" />
<path d="M143.9,117l0,-9.6l9.5,0l0,9.6Z" class="g2_1" />
<path d="M143.9,107.4l0,-9.5l9.5,0l0,9.5Z" class="g2_1" />
<path d="M143.9,97.9l0,-9.5l9.5,0l0,9.5Z" class="g2_1" />
<path d="M143.9,88.4l0,-9.6l9.5,0l0,9.6Z" class="g2_1" />
<path d="M143.9,78.8l0,-9.5l9.5,0l0,9.5Z" class="g2_1" />
<path d="M143.9,69.3l0,-9.5l9.5,0l0,9.5Z" class="g2_1" />
<path d="M143.9,59.8l0,-9.5l9.5,0l0,9.5Z" class="g2_1" />
<path d="M143.9,50.3l0,-9.6l9.5,0l0,9.6Z" class="g2_1" />
<path d="M143.9,40.7l0,-9.5l9.5,0l0,9.5Z" class="g2_1" />
<path d="M143.9,31.2l0,-9.5l9.5,0l0,9.5Z" class="g1_1" />
<path d="M153.4,326.6l0,-9.6l9.5,0l0,9.6Z" class="g1_1" />
<path d="M153.4,317l0,-9.5l9.5,0l0,9.5Z" class="g1_1" />
<path d="M153.4,307.5l0,-9.5l9.5,0l0,9.5Z" class="g1_1" />
<path d="M153.4,298l0,-9.5l9.5,0l0,9.5Z" class="g1_1" />
<path d="M153.4,288.5l0,-9.6l9.5,0l0,9.6Z" class="g3_1" />
<path d="M153.4,278.9l0,-9.5l9.5,0l0,9.5Z" class="g3_1" />
<path d="M153.4,269.4l0,-9.5l9.5,0l0,9.5Z" class="g3_1" />
<path d="M153.4,259.9l0,-9.6l9.5,0l0,9.6Z" class="g3_1" />
<path d="M153.4,250.3l0,-9.5l9.5,0l0,9.5Z" class="g1_1" />
<path d="M153.4,240.8l0,-9.5l9.5,0l0,9.5Z" class="g1_1" />
<path d="M153.4,231.3l0,-9.5l9.5,0l0,9.5Z" class="g1_1" />
<path d="M153.4,221.8l0,-9.6l9.5,0l0,9.6Z" class="g1_1" />
<path d="M153.4,212.2l0,-9.5l9.5,0l0,9.5Z" class="g1_1" />
<path d="M153.4,202.7l0,-9.5l9.5,0l0,9.5Z" class="g3_1" />
<path d="M153.4,193.2l0,-9.5l9.5,0l0,9.5Z" class="g3_1" />
<path d="M153.4,183.7l0,-9.6l9.5,0l0,9.6Z" class="g2_1" />
<path d="M153.4,174.1l0,-9.5l9.5,0l0,9.5Z" class="g2_1" />
<path d="M153.4,164.6l0,-9.5l9.5,0l0,9.5Z" class="g2_1" />
<path d="M153.4,155.1l0,-9.6l9.5,0l0,9.6Z" class="g2_1" />
<path d="M153.4,145.5l0,-9.5l9.5,0l0,9.5Z" class="g2_1" />
<path d="M153.4,136l0,-9.5l9.5,0l0,9.5Z" class="g2_1" />
<path d="M153.4,126.5l0,-9.5l9.5,0l0,9.5Z" class="g2_1" />
<path d="M153.4,117l0,-9.6l9.5,0l0,9.6Z" class="g2_1" />
<path d="M153.4,107.4l0,-9.5l9.5,0l0,9.5Z" class="g2_1" />
<path d="M153.4,97.9l0,-9.5l9.5,0l0,9.5Z" class="g2_1" />
<path d="M153.4,88.4l0,-9.6l9.5,0l0,9.6Z" class="g2_1" />
<path d="M153.4,78.8l0,-9.5l9.5,0l0,9.5Z" class="g2_1" />
<path d="M153.4,69.3l0,-9.5l9.5,0l0,9.5Z" class="g2_1" />
<path d="M153.4,59.8l0,-9.5l9.5,0l0,9.5Z" class="g2_1" />
<path d="M153.4,50.3l0,-9.6l9.5,0l0,9.6Z" class="g2_1" />
<path d="M153.4,40.7l0,-9.5l9.5,0l0,9.5Z" class="g2_1" />
<path d="M153.4,31.2l0,-9.5l9.5,0l0,9.5Z" class="g1_1" />
<path d="M162.9,326.6l0,-9.6l9.5,0l0,9.6Z" class="g1_1" />
<path d="M162.9,317l0,-9.5l9.5,0l0,9.5Z" class="g1_1" />
<path d="M162.9,307.5l0,-9.5l9.5,0l0,9.5Z" class="g1_1" />
<path d="M162.9,298l0,-9.5l9.5,0l0,9.5Z" class="g1_1" />
<path d="M162.9,288.5l0,-9.6l9.5,0l0,9.6Z" class="g3_1" />
<path d="M162.9,278.9l0,-9.5l9.5,0l0,9.5Z" class="g3_1" />
<path d="M162.9,269.4l0,-9.5l9.5,0l0,9.5Z" class="g3_1" />
<path d="M162.9,259.9l0,-9.6l9.5,0l0,9.6Z" class="g2_1" />
<path d="M162.9,250.3l0,-9.5l9.5,0l0,9.5Z" class="g1_1" />
<path d="M162.9,240.8l0,-9.5l9.5,0l0,9.5Z" class="g1_1" />
<path d="M162.9,231.3l0,-9.5l9.5,0l0,9.5Z" class="g1_1" />
<path d="M162.9,221.8l0,-9.6l9.5,0l0,9.6Z" class="g1_1" />
<path d="M162.9,212.2l0,-9.5l9.5,0l0,9.5Z" class="g1_1" />
<path d="M162.9,202.7l0,-9.5l9.5,0l0,9.5Z" class="g3_1" />
<path d="M162.9,193.2l0,-9.5l9.5,0l0,9.5Z" class="g3_1" />
<path d="M162.9,183.7l0,-9.6l9.5,0l0,9.6Z" class="g3_1" />
<path d="M162.9,174.1l0,-9.5l9.5,0l0,9.5Z" class="g1_1" />
<path d="M162.9,164.6l0,-9.5l9.5,0l0,9.5Z" class="g1_1" />
<path d="M162.9,155.1l0,-9.6l9.5,0l0,9.6Z" class="g2_1" />
<path d="M162.9,145.5l0,-9.5l9.5,0l0,9.5Z" class="g2_1" />
<path d="M162.9,136l0,-9.5l9.5,0l0,9.5Z" class="g2_1" />
<path d="M162.9,126.5l0,-9.5l9.5,0l0,9.5Z" class="g2_1" />
<path d="M162.9,117l0,-9.6l9.5,0l0,9.6Z" class="g2_1" />
<path d="M162.9,107.4l0,-9.5l9.5,0l0,9.5Z" class="g2_1" />
<path d="M162.9,97.9l0,-9.5l9.5,0l0,9.5Z" class="g2_1" />
<path d="M162.9,88.4l0,-9.6l9.5,0l0,9.6Z" class="g2_1" />
<path d="M162.9,78.8l0,-9.5l9.5,0l0,9.5Z" class="g2_1" />
<path d="M162.9,69.3l0,-9.5l9.5,0l0,9.5Z" class="g2_1" />
<path d="M162.9,59.8l0,-9.5l9.5,0l0,9.5Z" class="g2_1" />
<path d="M162.9,50.3l0,-9.6l9.5,0l0,9.6Z" class="g2_1" />
<path d="M162.9,40.7l0,-9.5l9.5,0l0,9.5Z" class="g2_1" />
<path d="M162.9,31.2l0,-9.5l9.5,0l0,9.5Z" class="g2_1" />
<path d="M172.4,326.6l0,-9.6l9.6,0l0,9.6Z" class="g1_1" />
<path d="M172.4,317l0,-9.5l9.6,0l0,9.5Z" class="g1_1" />
<path d="M172.4,307.5l0,-9.5l9.6,0l0,9.5Z" class="g1_1" />
<path d="M172.4,298l0,-9.5l9.6,0l0,9.5Z" class="g1_1" />
<path d="M172.4,288.5l0,-9.6l9.6,0l0,9.6Z" class="g1_1" />
<path d="M172.4,278.9l0,-9.5l9.6,0l0,9.5Z" class="g3_1" />
<path d="M172.4,269.4l0,-9.5l9.6,0l0,9.5Z" class="g3_1" />
<path d="M172.4,259.9l0,-9.6l9.6,0l0,9.6Z" class="g3_1" />
<path d="M172.4,250.3l0,-9.5l9.6,0l0,9.5Z" class="g1_1" />
<path d="M172.4,240.8l0,-9.5l9.6,0l0,9.5Z" class="g1_1" />
<path d="M172.4,231.3l0,-9.5l9.6,0l0,9.5Z" class="g1_1" />
<path d="M172.4,221.8l0,-9.6l9.6,0l0,9.6Z" class="g1_1" />
<path d="M172.4,212.2l0,-9.5l9.6,0l0,9.5Z" class="g1_1" />
<path d="M172.4,202.7l0,-9.5l9.6,0l0,9.5Z" class="g1_1" />
<path d="M172.4,193.2l0,-9.5l9.6,0l0,9.5Z" class="g1_1" />
<path d="M172.4,183.7l0,-9.6l9.6,0l0,9.6Z" class="g1_1" />
<path d="M172.4,174.1l0,-9.5l9.6,0l0,9.5Z" class="g1_1" />
<path d="M172.4,164.6l0,-9.5l9.6,0l0,9.5Z" class="g1_1" />
<path d="M172.4,155.1l0,-9.6l9.6,0l0,9.6Z" class="g1_1" />
<path d="M172.4,145.5l0,-9.5l9.6,0l0,9.5Z" class="g3_1" />
<path d="M172.4,136l0,-9.5l9.6,0l0,9.5Z" class="g2_1" />
<path d="M172.4,126.5l0,-9.5l9.6,0l0,9.5Z" class="g2_1" />
<path d="M172.4,117l0,-9.6l9.6,0l0,9.6Z" class="g2_1" />
<path d="M172.4,107.4l0,-9.5l9.6,0l0,9.5Z" class="g2_1" />
<path d="M172.4,97.9l0,-9.5l9.6,0l0,9.5Z" class="g2_1" />
<path d="M172.4,88.4l0,-9.6l9.6,0l0,9.6Z" class="g2_1" />
<path d="M172.4,78.8l0,-9.5l9.6,0l0,9.5Z" class="g2_1" />
<path d="M172.4,69.3l0,-9.5l9.6,0l0,9.5Z" class="g2_1" />
<path d="M172.4,59.8l0,-9.5l9.6,0l0,9.5Z" class="g2_1" />
<path d="M172.4,50.3l0,-9.6l9.6,0l0,9.6Z" class="g2_1" />
<path d="M172.4,40.7l0,-9.5l9.6,0l0,9.5Z" class="g2_1" />
<path d="M172.4,31.2l0,-9.5l9.6,0l0,9.5Z" class="g1_1" />
<path d="M182,326.6l0,-9.6l9.5,0l0,9.6Z" class="g1_1" />
<path d="M182,317l0,-9.5l9.5,0l0,9.5Z" class="g1_1" />
<path d="M182,307.5l0,-9.5l9.5,0l0,9.5Z" class="g1_1" />
<path d="M182,298l0,-9.5l9.5,0l0,9.5Z" class="g1_1" />
<path d="M182,288.5l0,-9.6l9.5,0l0,9.6Z" class="g1_1" />
<path d="M182,278.9l0,-9.5l9.5,0l0,9.5Z" class="g1_1" />
<path d="M182,269.4l0,-9.5l9.5,0l0,9.5Z" class="g3_1" />
<path d="M182,259.9l0,-9.6l9.5,0l0,9.6Z" class="g3_1" />
<path d="M182,250.3l0,-9.5l9.5,0l0,9.5Z" class="g3_1" />
<path d="M182,240.8l0,-9.5l9.5,0l0,9.5Z" class="g1_1" />
<path d="M182,231.3l0,-9.5l9.5,0l0,9.5Z" class="g1_1" />
<path d="M182,221.8l0,-9.6l9.5,0l0,9.6Z" class="g1_1" />
<path d="M182,212.2l0,-9.5l9.5,0l0,9.5Z" class="g1_1" />
<path d="M182,202.7l0,-9.5l9.5,0l0,9.5Z" class="g3_1" />
<path d="M182,193.2l0,-9.5l9.5,0l0,9.5Z" class="g2_1" />
<path d="M182,183.7l0,-9.6l9.5,0l0,9.6Z" class="g2_1" />
<path d="M182,174.1l0,-9.5l9.5,0l0,9.5Z" class="g2_1" />
<path d="M182,164.6l0,-9.5l9.5,0l0,9.5Z" class="g1_1" />
<path d="M182,155.1l0,-9.6l9.5,0l0,9.6Z" class="g1_1" />
<path d="M182,145.5l0,-9.5l9.5,0l0,9.5Z" class="g3_1" />
<path d="M182,136l0,-9.5l9.5,0l0,9.5Z" class="g2_1" />
<path d="M182,126.5l0,-9.5l9.5,0l0,9.5Z" class="g2_1" />
<path d="M182,117l0,-9.6l9.5,0l0,9.6Z" class="g2_1" />
<path d="M182,107.4l0,-9.5l9.5,0l0,9.5Z" class="g2_1" />
<path d="M182,97.9l0,-9.5l9.5,0l0,9.5Z" class="g2_1" />
<path d="M182,88.4l0,-9.6l9.5,0l0,9.6Z" class="g2_1" />
<path d="M182,78.8l0,-9.5l9.5,0l0,9.5Z" class="g2_1" />
<path d="M182,69.3l0,-9.5l9.5,0l0,9.5Z" class="g2_1" />
<path d="M182,59.8l0,-9.5l9.5,0l0,9.5Z" class="g2_1" />
<path d="M182,50.3l0,-9.6l9.5,0l0,9.6Z" class="g2_1" />
<path d="M182,40.7l0,-9.5l9.5,0l0,9.5Z" class="g2_1" />
<path d="M182,31.2l0,-9.5l9.5,0l0,9.5Z" class="g1_1" />
<path d="M191.5,326.6l0,-9.6l9.5,0l0,9.6Z" class="g1_1" />
<path d="M191.5,317l0,-9.5l9.5,0l0,9.5Z" class="g1_1" />
<path d="M191.5,307.5l0,-9.5l9.5,0l0,9.5Z" class="g1_1" />
<path d="M191.5,298l0,-9.5l9.5,0l0,9.5Z" class="g1_1" />
<path d="M191.5,288.5l0,-9.6l9.5,0l0,9.6Z" class="g1_1" />
<path d="M191.5,278.9l0,-9.5l9.5,0l0,9.5Z" class="g1_1" />
<path d="M191.5,269.4l0,-9.5l9.5,0l0,9.5Z" class="g3_1" />
<path d="M191.5,259.9l0,-9.6l9.5,0l0,9.6Z" class="g3_1" />
<path d="M191.5,250.3l0,-9.5l9.5,0l0,9.5Z" class="g3_1" />
<path d="M191.5,240.8l0,-9.5l9.5,0l0,9.5Z" class="g3_1" />
<path d="M191.5,231.3l0,-9.5l9.5,0l0,9.5Z" class="g1_1" />
<path d="M191.5,221.8l0,-9.6l9.5,0l0,9.6Z" class="g1_1" />
<path d="M191.5,212.2l0,-9.5l9.5,0l0,9.5Z" class="g1_1" />
<path d="M191.5,202.7l0,-9.5l9.5,0l0,9.5Z" class="g2_1" />
<path d="M191.5,193.2l0,-9.5l9.5,0l0,9.5Z" class="g2_1" />
<path d="M191.5,183.7l0,-9.6l9.5,0l0,9.6Z" class="g2_1" />
<path d="M191.5,174.1l0,-9.5l9.5,0l0,9.5Z" class="g2_1" />
<path d="M191.5,164.6l0,-9.5l9.5,0l0,9.5Z" class="g2_1" />
<path d="M191.5,155.1l0,-9.6l9.5,0l0,9.6Z" class="g1_1" />
<path d="M191.5,145.5l0,-9.5l9.5,0l0,9.5Z" class="g1_1" />
<path d="M191.5,136l0,-9.5l9.5,0l0,9.5Z" class="g3_1" />
<path d="M191.5,126.5l0,-9.5l9.5,0l0,9.5Z" class="g2_1" />
<path d="M191.5,117l0,-9.6l9.5,0l0,9.6Z" class="g2_1" />
<path d="M191.5,107.4l0,-9.5l9.5,0l0,9.5Z" class="g2_1" />
<path d="M191.5,97.9l0,-9.5l9.5,0l0,9.5Z" class="g2_1" />
<path d="M191.5,88.4l0,-9.6l9.5,0l0,9.6Z" class="g2_1" />
<path d="M191.5,78.8l0,-9.5l9.5,0l0,9.5Z" class="g2_1" />
<path d="M191.5,69.3l0,-9.5l9.5,0l0,9.5Z" class="g2_1" />
<path d="M191.5,59.8l0,-9.5l9.5,0l0,9.5Z" class="g2_1" />
<path d="M191.5,50.3l0,-9.6l9.5,0l0,9.6Z" class="g2_1" />
<path d="M191.5,40.7l0,-9.5l9.5,0l0,9.5Z" class="g2_1" />
<path d="M191.5,31.2l0,-9.5l9.5,0l0,9.5Z" class="g1_1" />
<path d="M201,326.6l0,-9.6l9.6,0l0,9.6Z" class="g1_1" />
<path d="M201,317l0,-9.5l9.6,0l0,9.5Z" class="g1_1" />
<path d="M201,307.5l0,-9.5l9.6,0l0,9.5Z" class="g1_1" />
<path d="M201,298l0,-9.5l9.6,0l0,9.5Z" class="g1_1" />
<path d="M201,288.5l0,-9.6l9.6,0l0,9.6Z" class="g1_1" />
<path d="M201,278.9l0,-9.5l9.6,0l0,9.5Z" class="g1_1" />
<path d="M201,269.4l0,-9.5l9.6,0l0,9.5Z" class="g1_1" />
<path d="M201,259.9l0,-9.6l9.6,0l0,9.6Z" class="g3_1" />
<path d="M201,250.3l0,-9.5l9.6,0l0,9.5Z" class="g3_1" />
<path d="M201,240.8l0,-9.5l9.6,0l0,9.5Z" class="g3_1" />
<path d="M201,231.3l0,-9.5l9.6,0l0,9.5Z" class="g1_1" />
<path d="M201,221.8l0,-9.6l9.6,0l0,9.6Z" class="g1_1" />
<path d="M201,212.2l0,-9.5l9.6,0l0,9.5Z" class="g3_1" />
<path d="M201,202.7l0,-9.5l9.6,0l0,9.5Z" class="g2_1" />
<path d="M201,193.2l0,-9.5l9.6,0l0,9.5Z" class="g2_1" />
<path d="M201,183.7l0,-9.6l9.6,0l0,9.6Z" class="g2_1" />
<path d="M201,174.1l0,-9.5l9.6,0l0,9.5Z" class="g3_1" />
<path d="M201,164.6l0,-9.5l9.6,0l0,9.5Z" class="g2_1" />
<path d="M201,155.1l0,-9.6l9.6,0l0,9.6Z" class="g1_1" />
<path d="M201,145.5l0,-9.5l9.6,0l0,9.5Z" class="g1_1" />
<path d="M201,136l0,-9.5l9.6,0l0,9.5Z" class="g2_1" />
<path d="M201,126.5l0,-9.5l9.6,0l0,9.5Z" class="g2_1" />
<path d="M201,117l0,-9.6l9.6,0l0,9.6Z" class="g2_1" />
<path d="M201,107.4l0,-9.5l9.6,0l0,9.5Z" class="g2_1" />
<path d="M201,97.9l0,-9.5l9.6,0l0,9.5Z" class="g2_1" />
<path d="M201,88.4l0,-9.6l9.6,0l0,9.6Z" class="g2_1" />
<path d="M201,78.8l0,-9.5l9.6,0l0,9.5Z" class="g2_1" />
<path d="M201,69.3l0,-9.5l9.6,0l0,9.5Z" class="g2_1" />
<path d="M201,59.8l0,-9.5l9.6,0l0,9.5Z" class="g2_1" />
<path d="M201,50.3l0,-9.6l9.6,0l0,9.6Z" class="g2_1" />
<path d="M201,40.7l0,-9.5l9.6,0l0,9.5Z" class="g2_1" />
<path d="M201,31.2l0,-9.5l9.6,0l0,9.5Z" class="g1_1" />
<path d="M210.6,326.6l0,-9.6l9.5,0l0,9.6Z" class="g1_1" />
<path d="M210.6,317l0,-9.5l9.5,0l0,9.5Z" class="g1_1" />
<path d="M210.6,307.5l0,-9.5l9.5,0l0,9.5Z" class="g1_1" />
<path d="M210.6,298l0,-9.5l9.5,0l0,9.5Z" class="g1_1" />
<path d="M210.6,288.5l0,-9.6l9.5,0l0,9.6Z" class="g1_1" />
<path d="M210.6,278.9l0,-9.5l9.5,0l0,9.5Z" class="g1_1" />
<path d="M210.6,269.4l0,-9.5l9.5,0l0,9.5Z" class="g1_1" />
<path d="M210.6,259.9l0,-9.6l9.5,0l0,9.6Z" class="g3_1" />
<path d="M210.6,250.3l0,-9.5l9.5,0l0,9.5Z" class="g3_1" />
<path d="M210.6,240.8l0,-9.5l9.5,0l0,9.5Z" class="g3_1" />
<path d="M210.6,231.3l0,-9.5l9.5,0l0,9.5Z" class="g3_1" />
<path d="M210.6,221.8l0,-9.6l9.5,0l0,9.6Z" class="g1_1" />
<path d="M210.6,212.2l0,-9.5l9.5,0l0,9.5Z" class="g3_1" />
<path d="M210.6,202.7l0,-9.5l9.5,0l0,9.5Z" class="g1_1" />
<path d="M210.6,193.2l0,-9.5l9.5,0l0,9.5Z" class="g2_1" />
<path d="M210.6,183.7l0,-9.6l9.5,0l0,9.6Z" class="g2_1" />
<path d="M210.6,174.1l0,-9.5l9.5,0l0,9.5Z" class="g2_1" />
<path d="M210.6,164.6l0,-9.5l9.5,0l0,9.5Z" class="g1_1" />
<path d="M210.6,155.1l0,-9.6l9.5,0l0,9.6Z" class="g1_1" />
<path d="M210.6,145.5l0,-9.5l9.5,0l0,9.5Z" class="g1_1" />
<path d="M210.6,136l0,-9.5l9.5,0l0,9.5Z" class="g2_1" />
<path d="M210.6,126.5l0,-9.5l9.5,0l0,9.5Z" class="g2_1" />
<path d="M210.6,117l0,-9.6l9.5,0l0,9.6Z" class="g2_1" />
<path d="M210.6,107.4l0,-9.5l9.5,0l0,9.5Z" class="g2_1" />
<path d="M210.6,97.9l0,-9.5l9.5,0l0,9.5Z" class="g2_1" />
<path d="M210.6,88.4l0,-9.6l9.5,0l0,9.6Z" class="g2_1" />
<path d="M210.6,78.8l0,-9.5l9.5,0l0,9.5Z" class="g3_1" />
<path d="M210.6,69.3l0,-9.5l9.5,0l0,9.5Z" class="g2_1" />
<path d="M210.6,59.8l0,-9.5l9.5,0l0,9.5Z" class="g2_1" />
<path d="M210.6,50.3l0,-9.6l9.5,0l0,9.6Z" class="g2_1" />
<path d="M210.6,40.7l0,-9.5l9.5,0l0,9.5Z" class="g1_1" />
<path d="M210.6,31.2l0,-9.5l9.5,0l0,9.5Z" class="g1_1" />
<path d="M220.1,326.6l0,-9.6l9.5,0l0,9.6Z" class="g1_1" />
<path d="M220.1,317l0,-9.5l9.5,0l0,9.5Z" class="g1_1" />
<path d="M220.1,307.5l0,-9.5l9.5,0l0,9.5Z" class="g1_1" />
<path d="M220.1,298l0,-9.5l9.5,0l0,9.5Z" class="g1_1" />
<path d="M220.1,288.5l0,-9.6l9.5,0l0,9.6Z" class="g1_1" />
<path d="M220.1,278.9l0,-9.5l9.5,0l0,9.5Z" class="g1_1" />
<path d="M220.1,269.4l0,-9.5l9.5,0l0,9.5Z" class="g1_1" />
<path d="M220.1,259.9l0,-9.6l9.5,0l0,9.6Z" class="g1_1" />
<path d="M220.1,250.3l0,-9.5l9.5,0l0,9.5Z" class="g3_1" />
<path d="M220.1,240.8l0,-9.5l9.5,0l0,9.5Z" class="g3_1" />
<path d="M220.1,231.3l0,-9.5l9.5,0l0,9.5Z" class="g1_1" />
<path d="M220.1,221.8l0,-9.6l9.5,0l0,9.6Z" class="g1_1" />
<path d="M220.1,212.2l0,-9.5l9.5,0l0,9.5Z" class="g3_1" />
<path d="M220.1,202.7l0,-9.5l9.5,0l0,9.5Z" class="g1_1" />
<path d="M220.1,193.2l0,-9.5l9.5,0l0,9.5Z" class="g1_1" />
<path d="M220.1,183.7l0,-9.6l9.5,0l0,9.6Z" class="g1_1" />
<path d="M220.1,174.1l0,-9.5l9.5,0l0,9.5Z" class="g1_1" />
<path d="M220.1,164.6l0,-9.5l9.5,0l0,9.5Z" class="g1_1" />
<path d="M220.1,155.1l0,-9.6l9.5,0l0,9.6Z" class="g3_1" />
<path d="M220.1,145.5l0,-9.5l9.5,0l0,9.5Z" class="g2_1" />
<path d="M220.1,136l0,-9.5l9.5,0l0,9.5Z" class="g2_1" />
<path d="M220.1,126.5l0,-9.5l9.5,0l0,9.5Z" class="g2_1" />
<path d="M220.1,117l0,-9.6l9.5,0l0,9.6Z" class="g2_1" />
<path d="M220.1,107.4l0,-9.5l9.5,0l0,9.5Z" class="g2_1" />
<path d="M220.1,97.9l0,-9.5l9.5,0l0,9.5Z" class="g2_1" />
<path d="M220.1,88.4l0,-9.6l9.5,0l0,9.6Z" class="g2_1" />
<path d="M220.1,78.8l0,-9.5l9.5,0l0,9.5Z" class="g2_1" />
<path d="M220.1,69.3l0,-9.5l9.5,0l0,9.5Z" class="g2_1" />
<path d="M220.1,59.8l0,-9.5l9.5,0l0,9.5Z" class="g2_1" />
<path d="M220.1,50.3l0,-9.6l9.5,0l0,9.6Z" class="g2_1" />
<path d="M220.1,40.7l0,-9.5l9.5,0l0,9.5Z" class="g1_1" />
<path d="M220.1,31.2l0,-9.5l9.5,0l0,9.5Z" class="g1_1" />
<path d="M229.6,326.6l0,-9.6l9.5,0l0,9.6Z" class="g1_1" />
<path d="M229.6,317l0,-9.5l9.5,0l0,9.5Z" class="g1_1" />
<path d="M229.6,307.5l0,-9.5l9.5,0l0,9.5Z" class="g1_1" />
<path d="M229.6,298l0,-9.5l9.5,0l0,9.5Z" class="g1_1" />
<path d="M229.6,288.5l0,-9.6l9.5,0l0,9.6Z" class="g1_1" />
<path d="M229.6,278.9l0,-9.5l9.5,0l0,9.5Z" class="g1_1" />
<path d="M229.6,269.4l0,-9.5l9.5,0l0,9.5Z" class="g3_1" />
<path d="M229.6,259.9l0,-9.6l9.5,0l0,9.6Z" class="g2_1" />
<path d="M229.6,250.3l0,-9.5l9.5,0l0,9.5Z" class="g2_1" />
<path d="M229.6,240.8l0,-9.5l9.5,0l0,9.5Z" class="g2_1" />
<path d="M229.6,231.3l0,-9.5l9.5,0l0,9.5Z" class="g2_1" />
<path d="M229.6,221.8l0,-9.6l9.5,0l0,9.6Z" class="g2_1" />
<path d="M229.6,212.2l0,-9.5l9.5,0l0,9.5Z" class="g2_1" />
<path d="M229.6,202.7l0,-9.5l9.5,0l0,9.5Z" class="g2_1" />
<path d="M229.6,193.2l0,-9.5l9.5,0l0,9.5Z" class="g2_1" />
<path d="M229.6,183.7l0,-9.6l9.5,0l0,9.6Z" class="g2_1" />
<path d="M229.6,174.1l0,-9.5l9.5,0l0,9.5Z" class="g2_1" />
<path d="M229.6,164.6l0,-9.5l9.5,0l0,9.5Z" class="g2_1" />
<path d="M229.6,155.1l0,-9.6l9.5,0l0,9.6Z" class="g2_1" />
<path d="M229.6,145.5l0,-9.5l9.5,0l0,9.5Z" class="g2_1" />
<path d="M229.6,136l0,-9.5l9.5,0l0,9.5Z" class="g2_1" />
<path d="M229.6,126.5l0,-9.5l9.5,0l0,9.5Z" class="g2_1" />
<path d="M229.6,117l0,-9.6l9.5,0l0,9.6Z" class="g2_1" />
<path d="M229.6,107.4l0,-9.5l9.5,0l0,9.5Z" class="g2_1" />
<path d="M229.6,97.9l0,-9.5l9.5,0l0,9.5Z" class="g2_1" />
<path d="M229.6,88.4l0,-9.6l9.5,0l0,9.6Z" class="g2_1" />
<path d="M229.6,78.8l0,-9.5l9.5,0l0,9.5Z" class="g2_1" />
<path d="M229.6,69.3l0,-9.5l9.5,0l0,9.5Z" class="g2_1" />
<path d="M229.6,59.8l0,-9.5l9.5,0l0,9.5Z" class="g2_1" />
<path d="M229.6,50.3l0,-9.6l9.5,0l0,9.6Z" class="g3_1" />
<path d="M229.6,40.7l0,-9.5l9.5,0l0,9.5Z" class="g1_1" />
<path d="M229.6,31.2l0,-9.5l9.5,0l0,9.5Z" class="g1_1" />
<path d="M239.1,326.6l0,-9.6l9.6,0l0,9.6Z" class="g1_1" />
<path d="M239.1,317l0,-9.5l9.6,0l0,9.5Z" class="g1_1" />
<path d="M239.1,307.5l0,-9.5l9.6,0l0,9.5Z" class="g1_1" />
<path d="M239.1,298l0,-9.5l9.6,0l0,9.5Z" class="g1_1" />
<path d="M239.1,288.5l0,-9.6l9.6,0l0,9.6Z" class="g2_1" />
<path d="M239.1,278.9l0,-9.5l9.6,0l0,9.5Z" class="g2_1" />
<path d="M239.1,269.4l0,-9.5l9.6,0l0,9.5Z" class="g2_1" />
<path d="M239.1,259.9l0,-9.6l9.6,0l0,9.6Z" class="g2_1" />
<path d="M239.1,250.3l0,-9.5l9.6,0l0,9.5Z" class="g2_1" />
<path d="M239.1,240.8l0,-9.5l9.6,0l0,9.5Z" class="g2_1" />
<path d="M239.1,231.3l0,-9.5l9.6,0l0,9.5Z" class="g2_1" />
<path d="M239.1,221.8l0,-9.6l9.6,0l0,9.6Z" class="g2_1" />
<path d="M239.1,212.2l0,-9.5l9.6,0l0,9.5Z" class="g2_1" />
<path d="M239.1,202.7l0,-9.5l9.6,0l0,9.5Z" class="g2_1" />
<path d="M239.1,193.2l0,-9.5l9.6,0l0,9.5Z" class="g2_1" />
<path d="M239.1,183.7l0,-9.6l9.6,0l0,9.6Z" class="g2_1" />
<path d="M239.1,174.1l0,-9.5l9.6,0l0,9.5Z" class="g2_1" />
<path d="M239.1,164.6l0,-9.5l9.6,0l0,9.5Z" class="g2_1" />
<path d="M239.1,155.1l0,-9.6l9.6,0l0,9.6Z" class="g2_1" />
<path d="M239.1,145.5l0,-9.5l9.6,0l0,9.5Z" class="g2_1" />
<path d="M239.1,136l0,-9.5l9.6,0l0,9.5Z" class="g2_1" />
<path d="M239.1,126.5l0,-9.5l9.6,0l0,9.5Z" class="g2_1" />
<path d="M239.1,117l0,-9.6l9.6,0l0,9.6Z" class="g2_1" />
<path d="M239.1,107.4l0,-9.5l9.6,0l0,9.5Z" class="g2_1" />
<path d="M239.1,97.9l0,-9.5l9.6,0l0,9.5Z" class="g2_1" />
<path d="M239.1,88.4l0,-9.6l9.6,0l0,9.6Z" class="g2_1" />
<path d="M239.1,78.8l0,-9.5l9.6,0l0,9.5Z" class="g2_1" />
<path d="M239.1,69.3l0,-9.5l9.6,0l0,9.5Z" class="g2_1" />
<path d="M239.1,59.8l0,-9.5l9.6,0l0,9.5Z" class="g2_1" />
<path d="M239.1,50.3l0,-9.6l9.6,0l0,9.6Z" class="g1_1" />
<path d="M239.1,40.7l0,-9.5l9.6,0l0,9.5Z" class="g1_1" />
<path d="M239.1,31.2l0,-9.5l9.6,0l0,9.5Z" class="g1_1" />
<path d="M248.7,326.6l0,-9.6l9.5,0l0,9.6Z" class="g1_1" />
<path d="M248.7,317l0,-9.5l9.5,0l0,9.5Z" class="g1_1" />
<path d="M248.7,307.5l0,-9.5l9.5,0l0,9.5Z" class="g2_1" />
<path d="M248.7,298l0,-9.5l9.5,0l0,9.5Z" class="g2_1" />
<path d="M248.7,288.5l0,-9.6l9.5,0l0,9.6Z" class="g2_1" />
<path d="M248.7,278.9l0,-9.5l9.5,0l0,9.5Z" class="g2_1" />
<path d="M248.7,269.4l0,-9.5l9.5,0l0,9.5Z" class="g2_1" />
<path d="M248.7,259.9l0,-9.6l9.5,0l0,9.6Z" class="g2_1" />
<path d="M248.7,250.3l0,-9.5l9.5,0l0,9.5Z" class="g2_1" />
<path d="M248.7,240.8l0,-9.5l9.5,0l0,9.5Z" class="g2_1" />
<path d="M248.7,231.3l0,-9.5l9.5,0l0,9.5Z" class="g2_1" />
<path d="M248.7,221.8l0,-9.6l9.5,0l0,9.6Z" class="g2_1" />
<path d="M248.7,212.2l0,-9.5l9.5,0l0,9.5Z" class="g2_1" />
<path d="M248.7,202.7l0,-9.5l9.5,0l0,9.5Z" class="g2_1" />
<path d="M248.7,193.2l0,-9.5l9.5,0l0,9.5Z" class="g2_1" />
<path d="M248.7,183.7l0,-9.6l9.5,0l0,9.6Z" class="g2_1" />
<path d="M248.7,174.1l0,-9.5l9.5,0l0,9.5Z" class="g2_1" />
<path d="M248.7,164.6l0,-9.5l9.5,0l0,9.5Z" class="g2_1" />
<path d="M248.7,155.1l0,-9.6l9.5,0l0,9.6Z" class="g2_1" />
<path d="M248.7,145.5l0,-9.5l9.5,0l0,9.5Z" class="g2_1" />
<path d="M248.7,136l0,-9.5l9.5,0l0,9.5Z" class="g2_1" />
<path d="M248.7,126.5l0,-9.5l9.5,0l0,9.5Z" class="g2_1" />
<path d="M248.7,117l0,-9.6l9.5,0l0,9.6Z" class="g2_1" />
<path d="M248.7,107.4l0,-9.5l9.5,0l0,9.5Z" class="g2_1" />
<path d="M248.7,97.9l0,-9.5l9.5,0l0,9.5Z" class="g2_1" />
<path d="M248.7,88.4l0,-9.6l9.5,0l0,9.6Z" class="g2_1" />
<path d="M248.7,78.8l0,-9.5l9.5,0l0,9.5Z" class="g2_1" />
<path d="M248.7,69.3l0,-9.5l9.5,0l0,9.5Z" class="g2_1" />
<path d="M248.7,59.8l0,-9.5l9.5,0l0,9.5Z" class="g1_1" />
<path d="M248.7,50.3l0,-9.6l9.5,0l0,9.6Z" class="g1_1" />
<path d="M248.7,40.7l0,-9.5l9.5,0l0,9.5Z" class="g1_1" />
<path d="M248.7,31.2l0,-9.5l9.5,0l0,9.5Z" class="g1_1" />
<path d="M258.2,326.6l0,-9.6l9.5,0l0,9.6Z" class="g2_1" />
<path d="M258.2,317l0,-9.5l9.5,0l0,9.5Z" class="g2_1" />
<path d="M258.2,307.5l0,-9.5l9.5,0l0,9.5Z" class="g2_1" />
<path d="M258.2,298l0,-9.5l9.5,0l0,9.5Z" class="g2_1" />
<path d="M258.2,288.5l0,-9.6l9.5,0l0,9.6Z" class="g2_1" />
<path d="M258.2,278.9l0,-9.5l9.5,0l0,9.5Z" class="g2_1" />
<path d="M258.2,269.4l0,-9.5l9.5,0l0,9.5Z" class="g2_1" />
<path d="M258.2,259.9l0,-9.6l9.5,0l0,9.6Z" class="g3_1" />
<path d="M258.2,250.3l0,-9.5l9.5,0l0,9.5Z" class="g2_1" />
<path d="M258.2,240.8l0,-9.5l9.5,0l0,9.5Z" class="g2_1" />
<path d="M258.2,231.3l0,-9.5l9.5,0l0,9.5Z" class="g2_1" />
<path d="M258.2,221.8l0,-9.6l9.5,0l0,9.6Z" class="g2_1" />
<path d="M258.2,212.2l0,-9.5l9.5,0l0,9.5Z" class="g2_1" />
<path d="M258.2,202.7l0,-9.5l9.5,0l0,9.5Z" class="g2_1" />
<path d="M258.2,193.2l0,-9.5l9.5,0l0,9.5Z" class="g2_1" />
<path d="M258.2,183.7l0,-9.6l9.5,0l0,9.6Z" class="g2_1" />
<path d="M258.2,174.1l0,-9.5l9.5,0l0,9.5Z" class="g2_1" />
<path d="M258.2,164.6l0,-9.5l9.5,0l0,9.5Z" class="g2_1" />
<path d="M258.2,155.1l0,-9.6l9.5,0l0,9.6Z" class="g2_1" />
<path d="M258.2,145.5l0,-9.5l9.5,0l0,9.5Z" class="g2_1" />
<path d="M258.2,136l0,-9.5l9.5,0l0,9.5Z" class="g2_1" />
<path d="M258.2,126.5l0,-9.5l9.5,0l0,9.5Z" class="g2_1" />
<path d="M258.2,117l0,-9.6l9.5,0l0,9.6Z" class="g2_1" />
<path d="M258.2,107.4l0,-9.5l9.5,0l0,9.5Z" class="g2_1" />
<path d="M258.2,97.9l0,-9.5l9.5,0l0,9.5Z" class="g2_1" />
<path d="M258.2,88.4l0,-9.6l9.5,0l0,9.6Z" class="g2_1" />
<path d="M258.2,78.8l0,-9.5l9.5,0l0,9.5Z" class="g3_1" />
<path d="M258.2,69.3l0,-9.5l9.5,0l0,9.5Z" class="g1_1" />
<path d="M258.2,59.8l0,-9.5l9.5,0l0,9.5Z" class="g1_1" />
<path d="M258.2,50.3l0,-9.6l9.5,0l0,9.6Z" class="g1_1" />
<path d="M258.2,40.7l0,-9.5l9.5,0l0,9.5Z" class="g1_1" />
<path d="M258.2,31.2l0,-9.5l9.5,0l0,9.5Z" class="g1_1" />
<path d="M267.7,326.6l0,-9.6l9.5,0l0,9.6Z" class="g2_1" />
<path d="M267.7,317l0,-9.5l9.5,0l0,9.5Z" class="g2_1" />
<path d="M267.7,307.5l0,-9.5l9.5,0l0,9.5Z" class="g2_1" />
<path d="M267.7,298l0,-9.5l9.5,0l0,9.5Z" class="g2_1" />
<path d="M267.7,288.5l0,-9.6l9.5,0l0,9.6Z" class="g2_1" />
<path d="M267.7,278.9l0,-9.5l9.5,0l0,9.5Z" class="g2_1" />
<path d="M267.7,269.4l0,-9.5l9.5,0l0,9.5Z" class="g3_1" />
<path d="M267.7,259.9l0,-9.6l9.5,0l0,9.6Z" class="g3_1" />
<path d="M267.7,250.3l0,-9.5l9.5,0l0,9.5Z" class="g2_1" />
<path d="M267.7,240.8l0,-9.5l9.5,0l0,9.5Z" class="g2_1" />
<path d="M267.7,231.3l0,-9.5l9.5,0l0,9.5Z" class="g2_1" />
<path d="M267.7,221.8l0,-9.6l9.5,0l0,9.6Z" class="g2_1" />
<path d="M267.7,212.2l0,-9.5l9.5,0l0,9.5Z" class="g2_1" />
<path d="M267.7,202.7l0,-9.5l9.5,0l0,9.5Z" class="g2_1" />
<path d="M267.7,193.2l0,-9.5l9.5,0l0,9.5Z" class="g2_1" />
<path d="M267.7,183.7l0,-9.6l9.5,0l0,9.6Z" class="g2_1" />
<path d="M267.7,174.1l0,-9.5l9.5,0l0,9.5Z" class="g2_1" />
<path d="M267.7,164.6l0,-9.5l9.5,0l0,9.5Z" class="g2_1" />
<path d="M267.7,155.1l0,-9.6l9.5,0l0,9.6Z" class="g2_1" />
<path d="M267.7,145.5l0,-9.5l9.5,0l0,9.5Z" class="g2_1" />
<path d="M267.7,136l0,-9.5l9.5,0l0,9.5Z" class="g2_1" />
<path d="M267.7,126.5l0,-9.5l9.5,0l0,9.5Z" class="g2_1" />
<path d="M267.7,117l0,-9.6l9.5,0l0,9.6Z" class="g2_1" />
<path d="M267.7,107.4l0,-9.5l9.5,0l0,9.5Z" class="g2_1" />
<path d="M267.7,97.9l0,-9.5l9.5,0l0,9.5Z" class="g2_1" />
<path d="M267.7,88.4l0,-9.6l9.5,0l0,9.6Z" class="g1_1" />
<path d="M267.7,78.8l0,-9.5l9.5,0l0,9.5Z" class="g1_1" />
<path d="M267.7,69.3l0,-9.5l9.5,0l0,9.5Z" class="g1_1" />
<path d="M267.7,59.8l0,-9.5l9.5,0l0,9.5Z" class="g1_1" />
<path d="M267.7,50.3l0,-9.6l9.5,0l0,9.6Z" class="g1_1" />
<path d="M267.7,40.7l0,-9.5l9.5,0l0,9.5Z" class="g1_1" />
<path d="M267.7,31.2l0,-9.5l9.5,0l0,9.5Z" class="g1_1" />
<path d="M277.2,326.6l0,-9.6l9.6,0l0,9.6Z" class="g2_1" />
<path d="M277.2,317l0,-9.5l9.6,0l0,9.5Z" class="g2_1" />
<path d="M277.2,307.5l0,-9.5l9.6,0l0,9.5Z" class="g2_1" />
<path d="M277.2,298l0,-9.5l9.6,0l0,9.5Z" class="g2_1" />
<path d="M277.2,288.5l0,-9.6l9.6,0l0,9.6Z" class="g2_1" />
<path d="M277.2,278.9l0,-9.5l9.6,0l0,9.5Z" class="g2_1" />
<path d="M277.2,269.4l0,-9.5l9.6,0l0,9.5Z" class="g3_1" />
<path d="M277.2,259.9l0,-9.6l9.6,0l0,9.6Z" class="g2_1" />
<path d="M277.2,250.3l0,-9.5l9.6,0l0,9.5Z" class="g2_1" />
<path d="M277.2,240.8l0,-9.5l9.6,0l0,9.5Z" class="g2_1" />
<path d="M277.2,231.3l0,-9.5l9.6,0l0,9.5Z" class="g2_1" />
<path d="M277.2,221.8l0,-9.6l9.6,0l0,9.6Z" class="g2_1" />
<path d="M277.2,212.2l0,-9.5l9.6,0l0,9.5Z" class="g2_1" />
<path d="M277.2,202.7l0,-9.5l9.6,0l0,9.5Z" class="g2_1" />
<path d="M277.2,193.2l0,-9.5l9.6,0l0,9.5Z" class="g2_1" />
<path d="M277.2,183.7l0,-9.6l9.6,0l0,9.6Z" class="g2_1" />
<path d="M277.2,174.1l0,-9.5l9.6,0l0,9.5Z" class="g2_1" />
<path d="M277.2,164.6l0,-9.5l9.6,0l0,9.5Z" class="g2_1" />
<path d="M277.2,155.1l0,-9.6l9.6,0l0,9.6Z" class="g2_1" />
<path d="M277.2,145.5l0,-9.5l9.6,0l0,9.5Z" class="g2_1" />
<path d="M277.2,136l0,-9.5l9.6,0l0,9.5Z" class="g2_1" />
<path d="M277.2,126.5l0,-9.5l9.6,0l0,9.5Z" class="g2_1" />
<path d="M277.2,117l0,-9.6l9.6,0l0,9.6Z" class="g3_1" />
<path d="M277.2,107.4l0,-9.5l9.6,0l0,9.5Z" class="g1_1" />
<path d="M277.2,97.9l0,-9.5l9.6,0l0,9.5Z" class="g1_1" />
<path d="M277.2,88.4l0,-9.6l9.6,0l0,9.6Z" class="g1_1" />
<path d="M277.2,78.8l0,-9.5l9.6,0l0,9.5Z" class="g1_1" />
<path d="M277.2,69.3l0,-9.5l9.6,0l0,9.5Z" class="g1_1" />
<path d="M277.2,59.8l0,-9.5l9.6,0l0,9.5Z" class="g1_1" />
<path d="M277.2,50.3l0,-9.6l9.6,0l0,9.6Z" class="g1_1" />
<path d="M277.2,40.7l0,-9.5l9.6,0l0,9.5Z" class="g1_1" />
<path d="M277.2,31.2l0,-9.5l9.6,0l0,9.5Z" class="g1_1" />
<path d="M286.8,326.6l0,-9.6l9.5,0l0,9.6Z" class="g2_1" />
<path d="M286.8,317l0,-9.5l9.5,0l0,9.5Z" class="g2_1" />
<path d="M286.8,307.5l0,-9.5l9.5,0l0,9.5Z" class="g2_1" />
<path d="M286.8,298l0,-9.5l9.5,0l0,9.5Z" class="g2_1" />
<path d="M286.8,288.5l0,-9.6l9.5,0l0,9.6Z" class="g2_1" />
<path d="M286.8,278.9l0,-9.5l9.5,0l0,9.5Z" class="g2_1" />
<path d="M286.8,269.4l0,-9.5l9.5,0l0,9.5Z" class="g2_1" />
<path d="M286.8,259.9l0,-9.6l9.5,0l0,9.6Z" class="g2_1" />
<path d="M286.8,250.3l0,-9.5l9.5,0l0,9.5Z" class="g2_1" />
<path d="M286.8,240.8l0,-9.5l9.5,0l0,9.5Z" class="g2_1" />
<path d="M286.8,231.3l0,-9.5l9.5,0l0,9.5Z" class="g2_1" />
<path d="M286.8,221.8l0,-9.6l9.5,0l0,9.6Z" class="g1_1" />
<path d="M286.8,212.2l0,-9.5l9.5,0l0,9.5Z" class="g1_1" />
<path d="M286.8,202.7l0,-9.5l9.5,0l0,9.5Z" class="g1_1" />
<path d="M286.8,193.2l0,-9.5l9.5,0l0,9.5Z" class="g1_1" />
<path d="M286.8,183.7l0,-9.6l9.5,0l0,9.6Z" class="g1_1" />
<path d="M286.8,174.1l0,-9.5l9.5,0l0,9.5Z" class="g1_1" />
<path d="M286.8,164.6l0,-9.5l9.5,0l0,9.5Z" class="g1_1" />
<path d="M286.8,155.1l0,-9.6l9.5,0l0,9.6Z" class="g1_1" />
<path d="M286.8,145.5l0,-9.5l9.5,0l0,9.5Z" class="g1_1" />
<path d="M286.8,136l0,-9.5l9.5,0l0,9.5Z" class="g1_1" />
<path d="M286.8,126.5l0,-9.5l9.5,0l0,9.5Z" class="g1_1" />
<path d="M286.8,117l0,-9.6l9.5,0l0,9.6Z" class="g1_1" />
<path d="M286.8,107.4l0,-9.5l9.5,0l0,9.5Z" class="g1_1" />
<path d="M286.8,97.9l0,-9.5l9.5,0l0,9.5Z" class="g1_1" />
<path d="M286.8,88.4l0,-9.6l9.5,0l0,9.6Z" class="g1_1" />
<path d="M286.8,78.8l0,-9.5l9.5,0l0,9.5Z" class="g1_1" />
<path d="M286.8,69.3l0,-9.5l9.5,0l0,9.5Z" class="g1_1" />
<path d="M286.8,59.8l0,-9.5l9.5,0l0,9.5Z" class="g1_1" />
<path d="M286.8,50.3l0,-9.6l9.5,0l0,9.6Z" class="g1_1" />
<path d="M286.8,40.7l0,-9.5l9.5,0l0,9.5Z" class="g1_1" />
<path d="M286.8,31.2l0,-9.5l9.5,0l0,9.5Z" class="g1_1" />
<path d="M296.3,326.6l0,-9.6l9.5,0l0,9.6Z" class="g2_1" />
<path d="M296.3,317l0,-9.5l9.5,0l0,9.5Z" class="g2_1" />
<path d="M296.3,307.5l0,-9.5l9.5,0l0,9.5Z" class="g2_1" />
<path d="M296.3,298l0,-9.5l9.5,0l0,9.5Z" class="g2_1" />
<path d="M296.3,288.5l0,-9.6l9.5,0l0,9.6Z" class="g2_1" />
<path d="M296.3,278.9l0,-9.5l9.5,0l0,9.5Z" class="g2_1" />
<path d="M296.3,269.4l0,-9.5l9.5,0l0,9.5Z" class="g2_1" />
<path d="M296.3,259.9l0,-9.6l9.5,0l0,9.6Z" class="g2_1" />
<path d="M296.3,250.3l0,-9.5l9.5,0l0,9.5Z" class="g1_1" />
<path d="M296.3,240.8l0,-9.5l9.5,0l0,9.5Z" class="g1_1" />
<path d="M296.3,231.3l0,-9.5l9.5,0l0,9.5Z" class="g1_1" />
<path d="M296.3,221.8l0,-9.6l9.5,0l0,9.6Z" class="g1_1" />
<path d="M296.3,212.2l0,-9.5l9.5,0l0,9.5Z" class="g1_1" />
<path d="M296.3,202.7l0,-9.5l9.5,0l0,9.5Z" class="g1_1" />
<path d="M296.3,193.2l0,-9.5l9.5,0l0,9.5Z" class="g1_1" />
<path d="M296.3,183.7l0,-9.6l9.5,0l0,9.6Z" class="g1_1" />
<path d="M296.3,174.1l0,-9.5l9.5,0l0,9.5Z" class="g1_1" />
<path d="M296.3,164.6l0,-9.5l9.5,0l0,9.5Z" class="g1_1" />
<path d="M296.3,155.1l0,-9.6l9.5,0l0,9.6Z" class="g1_1" />
<path d="M296.3,145.5l0,-9.5l9.5,0l0,9.5Z" class="g1_1" />
<path d="M296.3,136l0,-9.5l9.5,0l0,9.5Z" class="g1_1" />
<path d="M296.3,126.5l0,-9.5l9.5,0l0,9.5Z" class="g1_1" />
<path d="M296.3,117l0,-9.6l9.5,0l0,9.6Z" class="g1_1" />
<path d="M296.3,107.4l0,-9.5l9.5,0l0,9.5Z" class="g1_1" />
<path d="M296.3,97.9l0,-9.5l9.5,0l0,9.5Z" class="g1_1" />
<path d="M296.3,88.4l0,-9.6l9.5,0l0,9.6Z" class="g1_1" />
<path d="M296.3,78.8l0,-9.5l9.5,0l0,9.5Z" class="g1_1" />
<path d="M296.3,69.3l0,-9.5l9.5,0l0,9.5Z" class="g1_1" />
<path d="M296.3,59.8l0,-9.5l9.5,0l0,9.5Z" class="g1_1" />
<path d="M296.3,50.3l0,-9.6l9.5,0l0,9.6Z" class="g1_1" />
<path d="M296.3,40.7l0,-9.5l9.5,0l0,9.5Z" class="g1_1" />
<path d="M296.3,31.2l0,-9.5l9.5,0l0,9.5Z" class="g1_1" />
<path d="M305.8,326.6l0,-9.6l9.6,0l0,9.6Z" class="g2_1" />
<path d="M305.8,317l0,-9.5l9.6,0l0,9.5Z" class="g2_1" />
<path d="M305.8,307.5l0,-9.5l9.6,0l0,9.5Z" class="g2_1" />
<path d="M305.8,298l0,-9.5l9.6,0l0,9.5Z" class="g2_1" />
<path d="M305.8,288.5l0,-9.6l9.6,0l0,9.6Z" class="g2_1" />
<path d="M305.8,278.9l0,-9.5l9.6,0l0,9.5Z" class="g2_1" />
<path d="M305.8,269.4l0,-9.5l9.6,0l0,9.5Z" class="g1_1" />
<path d="M305.8,259.9l0,-9.6l9.6,0l0,9.6Z" class="g1_1" />
<path d="M305.8,250.3l0,-9.5l9.6,0l0,9.5Z" class="g1_1" />
<path d="M305.8,240.8l0,-9.5l9.6,0l0,9.5Z" class="g1_1" />
<path d="M305.8,231.3l0,-9.5l9.6,0l0,9.5Z" class="g1_1" />
<path d="M305.8,221.8l0,-9.6l9.6,0l0,9.6Z" class="g1_1" />
<path d="M305.8,212.2l0,-9.5l9.6,0l0,9.5Z" class="g1_1" />
<path d="M305.8,202.7l0,-9.5l9.6,0l0,9.5Z" class="g1_1" />
<path d="M305.8,193.2l0,-9.5l9.6,0l0,9.5Z" class="g1_1" />
<path d="M305.8,183.7l0,-9.6l9.6,0l0,9.6Z" class="g1_1" />
<path d="M305.8,174.1l0,-9.5l9.6,0l0,9.5Z" class="g1_1" />
<path d="M305.8,164.6l0,-9.5l9.6,0l0,9.5Z" class="g1_1" />
<path d="M305.8,155.1l0,-9.6l9.6,0l0,9.6Z" class="g1_1" />
<path d="M305.8,145.5l0,-9.5l9.6,0l0,9.5Z" class="g1_1" />
<path d="M305.8,136l0,-9.5l9.6,0l0,9.5Z" class="g1_1" />
<path d="M305.8,126.5l0,-9.5l9.6,0l0,9.5Z" class="g1_1" />
<path d="M305.8,117l0,-9.6l9.6,0l0,9.6Z" class="g1_1" />
<path d="M305.8,107.4l0,-9.5l9.6,0l0,9.5Z" class="g1_1" />
<path d="M305.8,97.9l0,-9.5l9.6,0l0,9.5Z" class="g1_1" />
<path d="M305.8,88.4l0,-9.6l9.6,0l0,9.6Z" class="g1_1" />
<path d="M305.8,78.8l0,-9.5l9.6,0l0,9.5Z" class="g1_1" />
<path d="M305.8,69.3l0,-9.5l9.6,0l0,9.5Z" class="g1_1" />
<path d="M305.8,59.8l0,-9.5l9.6,0l0,9.5Z" class="g1_1" />
<path d="M305.8,50.3l0,-9.6l9.6,0l0,9.6Z" class="g1_1" />
<path d="M305.8,40.7l0,-9.5l9.6,0l0,9.5Z" class="g1_1" />
<path d="M305.8,31.2l0,-9.5l9.6,0l0,9.5Z" class="g1_1" />
<path d="M315.4,326.6l0,-9.6l9.5,0l0,9.6Z" class="g2_1" />
<path d="M315.4,317l0,-9.5l9.5,0l0,9.5Z" class="g2_1" />
<path d="M315.4,307.5l0,-9.5l9.5,0l0,9.5Z" class="g2_1" />
<path d="M315.4,298l0,-9.5l9.5,0l0,9.5Z" class="g2_1" />
<path d="M315.4,288.5l0,-9.6l9.5,0l0,9.6Z" class="g1_1" />
<path d="M315.4,278.9l0,-9.5l9.5,0l0,9.5Z" class="g1_1" />
<path d="M315.4,269.4l0,-9.5l9.5,0l0,9.5Z" class="g1_1" />
<path d="M315.4,259.9l0,-9.6l9.5,0l0,9.6Z" class="g1_1" />
<path d="M315.4,250.3l0,-9.5l9.5,0l0,9.5Z" class="g1_1" />
<path d="M315.4,240.8l0,-9.5l9.5,0l0,9.5Z" class="g1_1" />
<path d="M315.4,231.3l0,-9.5l9.5,0l0,9.5Z" class="g1_1" />
<path d="M315.4,221.8l0,-9.6l9.5,0l0,9.6Z" class="g1_1" />
<path d="M315.4,212.2l0,-9.5l9.5,0l0,9.5Z" class="g1_1" />
<path d="M315.4,202.7l0,-9.5l9.5,0l0,9.5Z" class="g1_1" />
<path d="M315.4,193.2l0,-9.5l9.5,0l0,9.5Z" class="g1_1" />
<path d="M315.4,183.7l0,-9.6l9.5,0l0,9.6Z" class="g1_1" />
<path d="M315.4,174.1l0,-9.5l9.5,0l0,9.5Z" class="g1_1" />
<path d="M315.4,164.6l0,-9.5l9.5,0l0,9.5Z" class="g1_1" />
<path d="M315.4,155.1l0,-9.6l9.5,0l0,9.6Z" class="g1_1" />
<path d="M315.4,145.5l0,-9.5l9.5,0l0,9.5Z" class="g1_1" />
<path d="M315.4,136l0,-9.5l9.5,0l0,9.5Z" class="g1_1" />
<path d="M315.4,126.5l0,-9.5l9.5,0l0,9.5Z" class="g1_1" />
<path d="M315.4,117l0,-9.6l9.5,0l0,9.6Z" class="g1_1" />
<path d="M315.4,107.4l0,-9.5l9.5,0l0,9.5Z" class="g1_1" />
<path d="M315.4,97.9l0,-9.5l9.5,0l0,9.5Z" class="g1_1" />
<path d="M315.4,88.4l0,-9.6l9.5,0l0,9.6Z" class="g1_1" />
<path d="M315.4,78.8l0,-9.5l9.5,0l0,9.5Z" class="g1_1" />
<path d="M315.4,69.3l0,-9.5l9.5,0l0,9.5Z" class="g1_1" />
<path d="M315.4,59.8l0,-9.5l9.5,0l0,9.5Z" class="g1_1" />
<path d="M315.4,50.3l0,-9.6l9.5,0l0,9.6Z" class="g1_1" />
<path d="M315.4,40.7l0,-9.5l9.5,0l0,9.5Z" class="g1_1" />
<path d="M315.4,31.2l0,-9.5l9.5,0l0,9.5Z" class="g1_1" />
<path d="M20,326.6l304.9,0M20,317l304.9,0M20,307.5l304.9,0M20,298l304.9,0M20,288.5l304.9,0M20,278.9l304.9,0M20,269.4l304.9,0M20,259.9l304.9,0M20,250.3l304.9,0M20,240.8l304.9,0M20,231.3l304.9,0M20,221.8l304.9,0M20,212.2l304.9,0M20,202.7l304.9,0M20,193.2l304.9,0M20,183.7l304.9,0M20,174.1l304.9,0M20,164.6l304.9,0M20,155.1l304.9,0M20,145.5l304.9,0M20,136l304.9,0M20,126.5l304.9,0M20,117l304.9,0M20,107.4l304.9,0M20,97.9l304.9,0M20,88.4l304.9,0M20,78.8l304.9,0M20,69.3l304.9,0M20,59.8l304.9,0M20,50.3l304.9,0M20,40.7l304.9,0M20,31.2l304.9,0M20,21.7l304.9,0M20,326.6L20,21.7m9.5,304.9l0,-304.9m9.6,304.9l0,-304.9m9.5,304.9l0,-304.9m9.5,304.9l0,-304.9m9.5,304.9l0,-304.9m9.6,304.9l0,-304.9m9.5,304.9l0,-304.9m9.5,304.9l0,-304.9m9.5,304.9l0,-304.9m9.6,304.9l0,-304.9m9.5,304.9l0,-304.9m9.5,304.9l0,-304.9m9.6,304.9l0,-304.9m9.5,304.9l0,-304.9m9.5,304.9l0,-304.9m9.5,304.9l0,-304.9M182,326.6L182,21.7m9.5,304.9l0,-304.9M201,326.6L201,21.7m9.6,304.9l0,-304.9m9.5,304.9l0,-304.9m9.5,304.9l0,-304.9m9.5,304.9l0,-304.9m9.6,304.9l0,-304.9m9.5,304.9l0,-304.9m9.5,304.9l0,-304.9m9.5,304.9l0,-304.9m9.6,304.9l0,-304.9m9.5,304.9l0,-304.9m9.5,304.9l0,-304.9m9.6,304.9l0,-304.9m9.5,304.9l0,-304.9" class="g4_1" />
<path d="M324.9,321.8l4,0" class="g5_1" />
<path d="M327.1,319.4c0.2,0.9,1.8,2.3,2.3,2.4c-0.5,0.2,-2.1,1.5,-2.3,2.4" class="g6_1" />
<path d="M324.9,312.3l4,0" class="g5_1" />
<path d="M327.1,309.8c0.2,1,1.8,2.3,2.3,2.5c-0.5,0.1,-2.1,1.5,-2.3,2.4" class="g6_1" />
<path d="M324.9,302.7l4,0" class="g5_1" />
<path d="M327.1,300.3c0.2,0.9,1.8,2.3,2.3,2.4c-0.5,0.2,-2.1,1.6,-2.3,2.5" class="g6_1" />
<path d="M324.9,293.2l4,0" class="g5_1" />
<path d="M327.1,290.8c0.2,0.9,1.8,2.3,2.3,2.4c-0.5,0.2,-2.1,1.5,-2.3,2.5" class="g6_1" />
<path d="M324.9,283.7l4,0" class="g5_1" />
<path d="M327.1,281.3c0.2,0.9,1.8,2.2,2.3,2.4c-0.5,0.1,-2.1,1.5,-2.3,2.4" class="g6_1" />
<path d="M324.9,274.2l4,0" class="g5_1" />
<path d="M327.1,271.7c0.2,0.9,1.8,2.3,2.3,2.5c-0.5,0.1,-2.1,1.5,-2.3,2.4" class="g6_1" />
<path d="M324.9,264.6l4,0" class="g5_1" />
<path d="M327.1,262.2c0.2,0.9,1.8,2.3,2.3,2.4c-0.5,0.2,-2.1,1.6,-2.3,2.5" class="g6_1" />
<path d="M324.9,255.1l4,0" class="g5_1" />
<path d="M327.1,252.7c0.2,0.9,1.8,2.3,2.3,2.4c-0.5,0.2,-2.1,1.5,-2.3,2.4" class="g6_1" />
<path d="M324.9,245.6l4,0" class="g5_1" />
<path d="M327.1,243.1c0.2,1,1.8,2.3,2.3,2.5c-0.5,0.1,-2.1,1.5,-2.3,2.4" class="g6_1" />
<path d="M324.9,236.1l4,0" class="g5_1" />
<path d="M327.1,233.6c0.2,0.9,1.8,2.3,2.3,2.5c-0.5,0.1,-2.1,1.5,-2.3,2.4" class="g6_1" />
<path d="M324.9,226.5l4,0" class="g5_1" />
<path d="M327.1,224.1c0.2,0.9,1.8,2.3,2.3,2.4c-0.5,0.2,-2.1,1.5,-2.3,2.5" class="g6_1" />
<path d="M324.9,217l4,0" class="g5_1" />
<path d="M327.1,214.6c0.2,0.9,1.8,2.2,2.3,2.4c-0.5,0.2,-2.1,1.5,-2.3,2.4" class="g6_1" />
<path d="M324.9,207.5l4,0" class="g5_1" />
<path d="M327.1,205c0.2,0.9,1.8,2.3,2.3,2.5c-0.5,0.1,-2.1,1.5,-2.3,2.4" class="g6_1" />
<path d="M324.9,197.9l4,0" class="g5_1" />
<path d="M327.1,195.5c0.2,0.9,1.8,2.3,2.3,2.4c-0.5,0.2,-2.1,1.6,-2.3,2.5" class="g6_1" />
<path d="M324.9,188.4l4,0" class="g5_1" />
<path d="M327.1,186c0.2,0.9,1.8,2.3,2.3,2.4c-0.5,0.2,-2.1,1.5,-2.3,2.5" class="g6_1" />
<path d="M324.9,178.9l4,0" class="g5_1" />
<path d="M327.1,176.5c0.2,0.9,1.8,2.2,2.3,2.4c-0.5,0.1,-2.1,1.5,-2.3,2.4" class="g6_1" />
<path d="M324.9,169.4l4,0" class="g5_1" />
<path d="M327.1,166.9c0.2,0.9,1.8,2.3,2.3,2.5c-0.5,0.1,-2.1,1.5,-2.3,2.4" class="g6_1" />
<path d="M324.9,159.8l4,0" class="g5_1" />
<path d="M327.1,157.4c0.2,0.9,1.8,2.3,2.3,2.4c-0.5,0.2,-2.1,1.6,-2.3,2.5" class="g6_1" />
<path d="M324.9,150.3l4,0" class="g5_1" />
<path d="M327.1,147.9c0.2,0.9,1.8,2.3,2.3,2.4c-0.5,0.2,-2.1,1.5,-2.3,2.4" class="g6_1" />
<path d="M324.9,140.8l4,0" class="g5_1" />
<path d="M327.1,138.3c0.2,1,1.8,2.3,2.3,2.5c-0.5,0.1,-2.1,1.5,-2.3,2.4" class="g6_1" />
<path d="M324.9,131.3l4,0" class="g5_1" />
<path d="M327.1,128.8c0.2,0.9,1.8,2.3,2.3,2.5c-0.5,0.1,-2.1,1.5,-2.3,2.4" class="g6_1" />
<path d="M324.9,121.7l4,0" class="g5_1" />
<path d="M327.1,119.3c0.2,0.9,1.8,2.3,2.3,2.4c-0.5,0.2,-2.1,1.5,-2.3,2.5" class="g6_1" />
<path d="M324.9,112.2l4,0" class="g5_1" />
<path d="M327.1,109.8c0.2,0.9,1.8,2.2,2.3,2.4c-0.5,0.1,-2.1,1.5,-2.3,2.4" class="g6_1" />
<path d="M324.9,102.7l4,0" class="g5_1" />
<path d="M327.1,100.2c0.2,0.9,1.8,2.3,2.3,2.5c-0.5,0.1,-2.1,1.5,-2.3,2.4" class="g6_1" />
<path d="M324.9,93.1l4,0" class="g5_1" />
<path d="M327.1,90.7c0.2,0.9,1.8,2.3,2.3,2.4c-0.5,0.2,-2.1,1.6,-2.3,2.5" class="g6_1" />
<path d="M324.9,83.6l4,0" class="g5_1" />
<path d="M327.1,81.2c0.2,0.9,1.8,2.3,2.3,2.4c-0.5,0.2,-2.1,1.5,-2.3,2.4" class="g6_1" />
<path d="M324.9,74.1l4,0" class="g5_1" />
<path d="M327.1,71.6c0.2,1,1.8,2.3,2.3,2.5c-0.5,0.1,-2.1,1.5,-2.3,2.4" class="g6_1" />
<path d="M324.9,64.6l4,0" class="g5_1" />
<path d="M327.1,62.1c0.2,0.9,1.8,2.3,2.3,2.5c-0.5,0.1,-2.1,1.5,-2.3,2.4" class="g6_1" />
<path d="M324.9,55l4,0" class="g5_1" />
<path d="M327.1,52.6c0.2,0.9,1.8,2.3,2.3,2.4c-0.5,0.2,-2.1,1.6,-2.3,2.5" class="g6_1" />
<path d="M324.9,45.5l4,0" class="g5_1" />
<path d="M327.1,43.1c0.2,0.9,1.8,2.2,2.3,2.4c-0.5,0.2,-2.1,1.5,-2.3,2.4" class="g6_1" />
<path d="M324.9,36l4,0" class="g5_1" />
<path d="M327.1,33.5c0.2,1,1.8,2.3,2.3,2.5c-0.5,0.1,-2.1,1.5,-2.3,2.4" class="g6_1" />
<path d="M324.9,26.4l4,0" class="g5_1" />
<path d="M327.1,24c0.2,0.9,1.8,2.3,2.3,2.4c-0.5,0.2,-2.1,1.6,-2.3,2.5" class="g6_1" />
<path d="M24.8,21.7l0,-4.1" class="g5_1" />
<path d="M22.3,19.4c0.9,-0.1,2.3,-1.8,2.5,-2.2c0.1,0.4,1.5,2.1,2.4,2.2" class="g6_1" />
<path d="M34.3,21.7l0,-4.1" class="g5_1" />
<path d="M31.9,19.4c0.9,-0.1,2.2,-1.8,2.4,-2.2c0.1,0.4,1.5,2.1,2.4,2.2" class="g6_1" />
<path d="M43.8,21.7l0,-4.1" class="g5_1" />
<path d="M41.4,19.4c0.9,-0.1,2.3,-1.8,2.4,-2.2c0.2,0.4,1.5,2.1,2.5,2.2" class="g6_1" />
<path d="M53.3,21.7l0,-4.1" class="g5_1" />
<path d="M50.9,19.4c0.9,-0.1,2.3,-1.8,2.4,-2.2c0.2,0.4,1.6,2.1,2.5,2.2" class="g6_1" />
<path d="M62.9,21.7l0,-4.1" class="g5_1" />
<path d="M60.4,19.4c0.9,-0.1,2.3,-1.8,2.5,-2.2c0.1,0.4,1.5,2.1,2.4,2.2" class="g6_1" />
<path d="M72.4,21.7l0,-4.1" class="g5_1" />
<path d="M70,19.4c0.9,-0.1,2.2,-1.8,2.4,-2.2c0.2,0.4,1.5,2.1,2.4,2.2" class="g6_1" />
<path d="M81.9,21.7l0,-4.1" class="g5_1" />
<path d="M79.5,19.4c0.9,-0.1,2.3,-1.8,2.4,-2.2c0.2,0.4,1.5,2.1,2.5,2.2" class="g6_1" />
<path d="M91.5,21.7l0,-4.1" class="g5_1" />
<path d="M89,19.4c0.9,-0.1,2.3,-1.8,2.5,-2.2c0.1,0.4,1.5,2.1,2.4,2.2" class="g6_1" />
<path d="M101,21.7l0,-4.1" class="g5_1" />
<path d="M98.5,19.4c1,-0.1,2.3,-1.8,2.5,-2.2c0.1,0.4,1.5,2.1,2.4,2.2" class="g6_1" />
<path d="M110.5,21.7l0,-4.1" class="g5_1" />
<path d="M108.1,19.4c0.9,-0.1,2.3,-1.8,2.4,-2.2c0.2,0.4,1.5,2.1,2.4,2.2" class="g6_1" />
<path d="M120,21.7l0,-4.1" class="g5_1" />
<path d="M117.6,19.4c0.9,-0.1,2.3,-1.8,2.4,-2.2c0.2,0.4,1.6,2.1,2.5,2.2" class="g6_1" />
<path d="M129.6,21.7l0,-4.1" class="g5_1" />
<path d="M127.1,19.4c0.9,-0.1,2.3,-1.8,2.5,-2.2c0.1,0.4,1.5,2.1,2.4,2.2" class="g6_1" />
<path d="M139.1,21.7l0,-4.1" class="g5_1" />
<path d="M136.7,19.4c0.9,-0.1,2.2,-1.8,2.4,-2.2c0.1,0.4,1.5,2.1,2.4,2.2" class="g6_1" />
<path d="M148.6,21.7l0,-4.1" class="g5_1" />
<path d="M146.2,19.4c0.9,-0.1,2.3,-1.8,2.4,-2.2c0.2,0.4,1.5,2.1,2.5,2.2" class="g6_1" />
<path d="M158.1,21.7l0,-4.1" class="g5_1" />
<path d="M155.7,19.4c0.9,-0.1,2.3,-1.8,2.4,-2.2c0.2,0.4,1.6,2.1,2.5,2.2" class="g6_1" />
<path d="M167.7,21.7l0,-4.1" class="g5_1" />
<path d="M165.2,19.4c1,-0.1,2.3,-1.8,2.5,-2.2c0.1,0.4,1.5,2.1,2.4,2.2" class="g6_1" />
<path d="M177.2,21.7l0,-4.1" class="g5_1" />
<path d="M174.8,19.4c0.9,-0.1,2.3,-1.8,2.4,-2.2c0.2,0.4,1.5,2.1,2.4,2.2" class="g6_1" />
<path d="M186.7,21.7l0,-4.1" class="g5_1" />
<path d="M184.3,19.4c0.9,-0.1,2.3,-1.8,2.4,-2.2c0.2,0.4,1.6,2.1,2.5,2.2" class="g6_1" />
<path d="M196.3,21.7l0,-4.1" class="g5_1" />
<path d="M193.8,19.4c0.9,-0.1,2.3,-1.8,2.5,-2.2c0.1,0.4,1.5,2.1,2.4,2.2" class="g6_1" />
<path d="M205.8,21.7l0,-4.1" class="g5_1" />
<path d="M203.4,19.4c0.9,-0.1,2.2,-1.8,2.4,-2.2c0.1,0.4,1.5,2.1,2.4,2.2" class="g6_1" />
<path d="M215.3,21.7l0,-4.1" class="g5_1" />
<path d="M212.9,19.4c0.9,-0.1,2.3,-1.8,2.4,-2.2c0.2,0.4,1.5,2.1,2.5,2.2" class="g6_1" />
<path d="M224.8,21.7l0,-4.1" class="g5_1" />
<path d="M222.4,19.4c0.9,-0.1,2.3,-1.8,2.4,-2.2c0.2,0.4,1.6,2.1,2.5,2.2" class="g6_1" />
<path d="M234.4,21.7l0,-4.1" class="g5_1" />
<path d="M231.9,19.4c0.9,-0.1,2.3,-1.8,2.5,-2.2c0.1,0.4,1.5,2.1,2.4,2.2" class="g6_1" />
<path d="M243.9,21.7l0,-4.1" class="g5_1" />
<path d="M241.5,19.4c0.9,-0.1,2.2,-1.8,2.4,-2.2c0.2,0.4,1.5,2.1,2.4,2.2" class="g6_1" />
<path d="M253.4,21.7l0,-4.1" class="g5_1" />
<path d="M251,19.4c0.9,-0.1,2.3,-1.8,2.4,-2.2c0.2,0.4,1.5,2.1,2.5,2.2" class="g6_1" />
<path d="M263,21.7l0,-4.1" class="g5_1" />
<path d="M260.5,19.4c0.9,-0.1,2.3,-1.8,2.5,-2.2c0.1,0.4,1.5,2.1,2.4,2.2" class="g6_1" />
<path d="M272.5,21.7l0,-4.1" class="g5_1" />
<path d="M270,19.4c1,-0.1,2.3,-1.8,2.5,-2.2c0.1,0.4,1.5,2.1,2.4,2.2" class="g6_1" />
<path d="M282,21.7l0,-4.1" class="g5_1" />
<path d="M279.6,19.4c0.9,-0.1,2.3,-1.8,2.4,-2.2c0.2,0.4,1.5,2.1,2.4,2.2" class="g6_1" />
<path d="M291.5,21.7l0,-4.1" class="g5_1" />
<path d="M289.1,19.4c0.9,-0.1,2.3,-1.8,2.4,-2.2c0.2,0.4,1.6,2.1,2.5,2.2" class="g6_1" />
<path d="M301.1,21.7l0,-4.1" class="g5_1" />
<path d="M298.6,19.4c0.9,-0.1,2.3,-1.8,2.5,-2.2c0.1,0.4,1.5,2.1,2.4,2.2" class="g6_1" />
<path d="M310.6,21.7l0,-4.1" class="g5_1" />
<path d="M308.2,19.4c0.9,-0.1,2.2,-1.8,2.4,-2.2c0.1,0.4,1.5,2.1,2.4,2.2" class="g6_1" />
<path d="M320.1,21.7l0,-4.1" class="g5_1" />
<path d="M317.7,19.4c0.9,-0.1,2.3,-1.8,2.4,-2.2c0.2,0.4,1.5,2.1,2.5,2.2" class="g6_1" />
<path d="M20,326.6l-4.3,4.2" class="g5_1" />
<path d="M18.7,331.3c-0.7,-0.6,-2.9,-0.4,-3.3,-0.1c0.2,-0.5,0.4,-2.6,-0.1,-3.4" class="g7_1" />
<path d="M29.5,326.6l-4.2,4.2" class="g5_1" />
<path d="M28.3,331.3c-0.8,-0.6,-2.9,-0.4,-3.4,-0.1c0.2,-0.5,0.5,-2.6,-0.1,-3.4" class="g8_1" />
<path d="M39.1,326.6l-4.3,4.2" class="g5_1" />
<path d="M37.8,331.3c-0.8,-0.6,-2.9,-0.4,-3.3,-0.1c0.2,-0.5,0.4,-2.6,-0.1,-3.4" class="g8_1" />
<path d="M48.6,326.6l-4.3,4.2" class="g5_1" />
<path d="M47.3,331.3c-0.7,-0.6,-2.9,-0.4,-3.3,-0.1c0.2,-0.5,0.4,-2.6,-0.1,-3.4" class="g7_1" />
<path d="M58.1,326.6l-4.3,4.2" class="g5_1" />
<path d="M56.9,331.3c-0.8,-0.6,-3,-0.4,-3.4,-0.1c0.2,-0.5,0.4,-2.6,-0.1,-3.4" class="g8_1" />
<path d="M67.6,326.6l-4.2,4.2" class="g5_1" />
<path d="M66.4,331.3c-0.8,-0.6,-2.9,-0.4,-3.4,-0.1c0.3,-0.5,0.5,-2.6,-0.1,-3.4" class="g8_1" />
<path d="M77.2,326.6l-4.3,4.2" class="g5_1" />
<path d="M75.9,331.3c-0.7,-0.6,-2.9,-0.4,-3.3,-0.1c0.2,-0.5,0.4,-2.6,-0.1,-3.4" class="g8_1" />
<path d="M86.7,326.6l-4.3,4.2" class="g5_1" />
<path d="M85.4,331.3c-0.7,-0.6,-2.9,-0.4,-3.3,-0.1c0.2,-0.5,0.4,-2.6,-0.1,-3.4" class="g8_1" />
<path d="M96.2,326.6L92,330.8" class="g5_1" />
<path d="M95,331.3c-0.8,-0.6,-2.9,-0.4,-3.4,-0.1c0.2,-0.5,0.5,-2.6,-0.1,-3.4" class="g8_1" />
<path d="M105.7,326.6l-4.2,4.2" class="g5_1" />
<path d="M104.5,331.3c-0.8,-0.6,-2.9,-0.4,-3.3,-0.1c0.2,-0.5,0.4,-2.6,-0.2,-3.4" class="g8_1" />
<path d="M115.3,326.6l-4.3,4.2" class="g5_1" />
<path d="M114,331.3c-0.7,-0.6,-2.9,-0.4,-3.3,-0.1c0.2,-0.5,0.4,-2.6,-0.1,-3.4" class="g8_1" />
<path d="M124.8,326.6l-4.3,4.2" class="g5_1" />
<path d="M123.5,331.3c-0.7,-0.6,-2.9,-0.4,-3.3,-0.1c0.2,-0.5,0.4,-2.6,-0.1,-3.4" class="g8_1" />
<path d="M134.3,326.6l-4.2,4.2" class="g5_1" />
<path d="M133.1,331.3c-0.8,-0.6,-2.9,-0.4,-3.4,-0.1c0.3,-0.5,0.5,-2.6,-0.1,-3.4" class="g8_1" />
<path d="M143.9,326.6l-4.3,4.2" class="g5_1" />
<path d="M142.6,331.3c-0.8,-0.6,-2.9,-0.4,-3.3,-0.1c0.2,-0.5,0.4,-2.6,-0.1,-3.4" class="g8_1" />
<path d="M153.4,326.6l-4.3,4.2" class="g5_1" />
<path d="M152.1,331.3c-0.7,-0.6,-2.9,-0.4,-3.3,-0.1c0.2,-0.5,0.4,-2.6,-0.1,-3.4" class="g8_1" />
<path d="M162.9,326.6l-4.3,4.2" class="g5_1" />
<path d="M161.7,331.3c-0.8,-0.6,-2.9,-0.4,-3.4,-0.1c0.2,-0.5,0.5,-2.6,-0.1,-3.4" class="g8_1" />
<path d="M172.4,326.6l-4.2,4.2" class="g5_1" />
<path d="M171.2,331.3c-0.8,-0.6,-2.9,-0.4,-3.4,-0.1c0.3,-0.5,0.5,-2.6,-0.1,-3.4" class="g8_1" />
<path d="M182,326.6l-4.3,4.2" class="g5_1" />
<path d="M180.7,331.3c-0.7,-0.6,-2.9,-0.4,-3.3,-0.1c0.2,-0.5,0.4,-2.6,-0.1,-3.4" class="g8_1" />
<path d="M191.5,326.6l-4.3,4.2" class="g5_1" />
<path d="M190.2,331.3c-0.7,-0.6,-2.9,-0.4,-3.3,-0.1c0.2,-0.5,0.4,-2.6,-0.1,-3.4" class="g8_1" />
<path d="M201,326.6l-4.2,4.2" class="g5_1" />
<path d="M199.8,331.3c-0.8,-0.6,-2.9,-0.4,-3.4,-0.1c0.2,-0.5,0.5,-2.6,-0.1,-3.4" class="g8_1" />
<path d="M210.6,326.6l-4.3,4.2" class="g5_1" />
<path d="M209.3,331.3c-0.8,-0.6,-2.9,-0.4,-3.3,-0.1c0.2,-0.5,0.4,-2.6,-0.1,-3.4" class="g8_1" />
<path d="M220.1,326.6l-4.3,4.2" class="g5_1" />
<path d="M218.8,331.3c-0.7,-0.6,-2.9,-0.4,-3.3,-0.1c0.2,-0.5,0.4,-2.6,-0.1,-3.4" class="g8_1" />
<path d="M229.6,326.6l-4.3,4.2" class="g5_1" />
<path d="M228.4,331.3c-0.8,-0.6,-3,-0.4,-3.4,-0.1c0.2,-0.5,0.4,-2.6,-0.1,-3.4" class="g8_1" />
<path d="M239.1,326.6l-4.2,4.2" class="g5_1" />
<path d="M237.9,331.3c-0.8,-0.6,-2.9,-0.4,-3.4,-0.1c0.3,-0.5,0.5,-2.6,-0.1,-3.4" class="g8_1" />
<path d="M248.7,326.6l-4.3,4.2" class="g5_1" />
<path d="M247.4,331.3c-0.7,-0.6,-2.9,-0.4,-3.3,-0.1c0.2,-0.5,0.4,-2.6,-0.1,-3.4" class="g8_1" />
<path d="M258.2,326.6l-4.3,4.2" class="g5_1" />
<path d="M256.9,331.3c-0.7,-0.6,-2.9,-0.4,-3.3,-0.1c0.2,-0.5,0.4,-2.6,-0.1,-3.4" class="g8_1" />
<path d="M267.7,326.6l-4.3,4.2" class="g5_1" />
<path d="M266.5,331.3c-0.8,-0.6,-2.9,-0.4,-3.4,-0.1c0.2,-0.5,0.5,-2.6,-0.1,-3.4" class="g8_1" />
<path d="M277.2,326.6l-4.2,4.2" class="g5_1" />
<path d="M276,331.3c-0.8,-0.6,-2.9,-0.4,-3.3,-0.1c0.2,-0.5,0.4,-2.6,-0.2,-3.4" class="g8_1" />
<path d="M286.8,326.6l-4.3,4.2" class="g5_1" />
<path d="M285.5,331.3c-0.7,-0.6,-2.9,-0.4,-3.3,-0.1c0.2,-0.5,0.4,-2.6,-0.1,-3.4" class="g8_1" />
<path d="M296.3,326.6l-4.3,4.2" class="g5_1" />
<path d="M295,331.3c-0.7,-0.6,-2.9,-0.4,-3.3,-0.1c0.2,-0.5,0.4,-2.6,-0.1,-3.4" class="g8_1" />
<path d="M305.8,326.6l-4.2,4.2" class="g5_1" />
<path d="M304.6,331.3c-0.8,-0.6,-2.9,-0.4,-3.4,-0.1c0.3,-0.5,0.5,-2.6,-0.1,-3.4" class="g8_1" />
<path d="M315.4,326.6l-4.3,4.2" class="g5_1" />
<path d="M314.1,331.3c-0.8,-0.6,-2.9,-0.4,-3.3,-0.1c0.2,-0.5,0.4,-2.6,-0.1,-3.4" class="g8_1" />
<path d="M20,317l-4.3,4.3" class="g5_1" />
<path d="M18.7,321.7c-0.7,-0.5,-2.9,-0.3,-3.3,-0.1c0.2,-0.4,0.4,-2.6,-0.1,-3.3" class="g7_1" />
<path d="M20,307.5l-4.3,4.3" class="g5_1" />
<path d="M18.7,312.2c-0.7,-0.5,-2.9,-0.3,-3.3,-0.1c0.2,-0.4,0.4,-2.6,-0.1,-3.3" class="g7_1" />
<path d="M20,298l-4.3,4.3" class="g5_1" />
<path d="M18.7,302.7c-0.7,-0.6,-2.9,-0.3,-3.3,-0.1c0.2,-0.5,0.4,-2.6,-0.1,-3.4" class="g7_1" />
<path d="M20,288.5l-4.3,4.2" class="g5_1" />
<path d="M18.7,293.2C18,292.6,15.8,292.8,15.4,293c0.2,-0.4,0.4,-2.5,-0.1,-3.3" class="g7_1" />
<path d="M20,278.9l-4.3,4.3" class="g5_1" />
<path d="M18.7,283.6c-0.7,-0.5,-2.9,-0.3,-3.3,-0.1c0.2,-0.4,0.4,-2.6,-0.1,-3.3" class="g7_1" />
<path d="M20,269.4l-4.3,4.3" class="g5_1" />
<path d="M18.7,274.1C18,273.6,15.8,273.8,15.4,274c0.2,-0.4,0.4,-2.6,-0.1,-3.3" class="g7_1" />
<path d="M20,259.9l-4.3,4.2" class="g5_1" />
<path d="M18.7,264.6C18,264,15.8,264.3,15.4,264.5c0.2,-0.5,0.4,-2.6,-0.1,-3.4" class="g7_1" />
<path d="M20,250.3l-4.3,4.3" class="g5_1" />
<path d="M18.7,255c-0.7,-0.5,-2.9,-0.3,-3.3,-0.1c0.2,-0.4,0.4,-2.5,-0.1,-3.3" class="g7_1" />
<path d="M20,240.8l-4.3,4.3" class="g5_1" />
<path d="M18.7,245.5C18,245,15.8,245.2,15.4,245.4c0.2,-0.4,0.4,-2.6,-0.1,-3.3" class="g7_1" />
<path d="M20,231.3l-4.3,4.3" class="g5_1" />
<path d="M18.7,236c-0.7,-0.5,-2.9,-0.3,-3.3,-0.1c0.2,-0.4,0.4,-2.6,-0.1,-3.4" class="g7_1" />
<path d="M20,221.8L15.7,226" class="g5_1" />
<path d="M18.7,226.5c-0.7,-0.6,-2.9,-0.4,-3.3,-0.1c0.2,-0.5,0.4,-2.6,-0.1,-3.4" class="g7_1" />
<path d="M20,212.2l-4.3,4.3" class="g5_1" />
<path d="M18.7,216.9c-0.7,-0.5,-2.9,-0.3,-3.3,-0.1c0.2,-0.4,0.4,-2.6,-0.1,-3.3" class="g7_1" />
<path d="M20,202.7L15.7,207" class="g5_1" />
<path d="M18.7,207.4c-0.7,-0.5,-2.9,-0.3,-3.3,-0.1c0.2,-0.4,0.4,-2.6,-0.1,-3.3" class="g7_1" />
<path d="M20,193.2l-4.3,4.2" class="g5_1" />
<path d="M18.7,197.9c-0.7,-0.6,-2.9,-0.3,-3.3,-0.1c0.2,-0.5,0.4,-2.6,-0.1,-3.4" class="g7_1" />
<path d="M20,183.7l-4.3,4.2" class="g5_1" />
<path d="M18.7,188.4C18,187.8,15.8,188,15.4,188.2c0.2,-0.4,0.4,-2.5,-0.1,-3.3" class="g7_1" />
<path d="M20,174.1l-4.3,4.3" class="g5_1" />
<path d="M18.7,178.8c-0.7,-0.5,-2.9,-0.3,-3.3,-0.1c0.2,-0.4,0.4,-2.6,-0.1,-3.3" class="g7_1" />
<path d="M20,164.6l-4.3,4.3" class="g5_1" />
<path d="M18.7,169.3C18,168.8,15.8,169,15.4,169.2c0.2,-0.4,0.4,-2.6,-0.1,-3.3" class="g7_1" />
<path d="M20,155.1l-4.3,4.2" class="g5_1" />
<path d="M18.7,159.8c-0.7,-0.6,-2.9,-0.4,-3.3,-0.1c0.2,-0.5,0.4,-2.6,-0.1,-3.4" class="g7_1" />
<path d="M20,145.5l-4.3,4.3" class="g5_1" />
<path d="M18.7,150.2c-0.7,-0.5,-2.9,-0.3,-3.3,-0.1c0.2,-0.4,0.4,-2.5,-0.1,-3.3" class="g7_1" />
<path d="M20,136l-4.3,4.3" class="g5_1" />
<path d="M18.7,140.7c-0.7,-0.5,-2.9,-0.3,-3.3,-0.1c0.2,-0.4,0.4,-2.6,-0.1,-3.3" class="g7_1" />
<path d="M20,126.5l-4.3,4.3" class="g5_1" />
<path d="M18.7,131.2c-0.7,-0.6,-2.9,-0.3,-3.3,-0.1c0.2,-0.5,0.4,-2.6,-0.1,-3.4" class="g7_1" />
<path d="M20,117l-4.3,4.2" class="g5_1" />
<path d="M18.7,121.7c-0.7,-0.6,-2.9,-0.4,-3.3,-0.1c0.2,-0.5,0.4,-2.6,-0.1,-3.4" class="g7_1" />
<path d="M20,107.4l-4.3,4.3" class="g5_1" />
<path d="M18.7,112.1C18,111.6,15.8,111.8,15.4,112c0.2,-0.4,0.4,-2.6,-0.1,-3.3" class="g7_1" />
<path d="M20,97.9l-4.3,4.3" class="g5_1" />
<path d="M18.7,102.6c-0.7,-0.5,-2.9,-0.3,-3.3,-0.1c0.2,-0.4,0.4,-2.6,-0.1,-3.3" class="g7_1" />
<path d="M20,88.4l-4.3,4.2" class="g5_1" />
<path d="M18.7,93.1C18,92.5,15.8,92.8,15.4,93c0.2,-0.5,0.4,-2.6,-0.1,-3.4" class="g7_1" />
<path d="M20,78.8l-4.3,4.3" class="g5_1" />
<path d="M18.7,83.5C18,83,15.8,83.2,15.4,83.4C15.6,83,15.8,80.9,15.3,80.1" class="g7_1" />
<path d="M20,69.3l-4.3,4.3" class="g5_1" />
<path d="M18.7,74C18,73.5,15.8,73.7,15.4,73.9c0.2,-0.4,0.4,-2.6,-0.1,-3.3" class="g7_1" />
<path d="M20,59.8l-4.3,4.3" class="g5_1" />
<path d="M18.7,64.5C18,64,15.8,64.2,15.4,64.4C15.6,64,15.8,61.8,15.3,61" class="g7_1" />
<path d="M20,50.3l-4.3,4.2" class="g5_1" />
<path d="M18.7,55C18,54.4,15.8,54.6,15.4,54.9c0.2,-0.5,0.4,-2.6,-0.1,-3.4" class="g7_1" />
<path d="M20,40.7L15.7,45" class="g5_1" />
<path d="M18.7,45.4C18,44.9,15.8,45.1,15.4,45.3C15.6,44.9,15.8,42.7,15.3,42" class="g7_1" />
<path d="M20,31.2l-4.3,4.3" class="g5_1" />
<path d="M18.7,35.9C18,35.4,15.8,35.6,15.4,35.8c0.2,-0.4,0.4,-2.6,-0.1,-3.3" class="g7_1" />
<text 
transform="matrix(0.71, -0.71, 0.71, 0.71, 10, 44)"
class="s1_1"
>0</text>

<text 
transform="matrix(0.71, -0.71, 0.71, 0.71, 10, 53)"
class="s1_1"
>0</text>

<text 
transform="matrix(0.71, -0.71, 0.71, 0.71, 10, 63)"
class="s1_1"
>0</text>

<text 
transform="matrix(0.71, -0.71, 0.71, 0.71, 10, 72)"
class="s1_1"
>0</text>

<text 
transform="matrix(0.71, -0.71, 0.71, 0.71, 10, 82)"
class="s1_1"
>0</text>

<text 
transform="matrix(0.71, -0.71, 0.71, 0.71, 10, 91)"
class="s1_1"
>0</text>

<text 
transform="matrix(0.71, -0.71, 0.71, 0.71, 10, 101)"
class="s1_1"
>0</text>

<text 
transform="matrix(0.71, -0.71, 0.71, 0.71, 10, 110)"
class="s1_1"
>0</text>

<text 
transform="matrix(0.71, -0.71, 0.71, 0.71, 10, 120)"
class="s1_1"
>0</text>

<text 
transform="matrix(0.71, -0.71, 0.71, 0.71, 10, 130)"
class="s1_1"
>0</text>

<text 
transform="matrix(0.71, -0.71, 0.71, 0.71, 10, 139)"
class="s1_1"
>0</text>

<text 
transform="matrix(0.71, -0.71, 0.71, 0.71, 8, 150)"
class="s1_1"
>10</text>

<text 
transform="matrix(0.71, -0.71, 0.71, 0.71, 8, 160)"
class="s1_1"
>12</text>

<text 
transform="matrix(0.71, -0.71, 0.71, 0.71, 8, 169)"
class="s1_1"
>16</text>

<text 
transform="matrix(0.71, -0.71, 0.71, 0.71, 8, 179)"
class="s1_1"
>18</text>

<text 
transform="matrix(0.71, -0.71, 0.71, 0.71, 8, 189)"
class="s1_1"
>22</text>

<text 
transform="matrix(0.71, -0.71, 0.71, 0.71, 8, 198)"
class="s1_1"
>22</text>

<text 
transform="matrix(0.71, -0.71, 0.71, 0.71, 8, 208)"
class="s1_1"
>24</text>

<text 
transform="matrix(0.71, -0.71, 0.71, 0.71, 8, 217)"
class="s1_1"
>26</text>

<text 
transform="matrix(0.71, -0.71, 0.71, 0.71, 8, 227)"
class="s1_1"
>28</text>

<text 
transform="matrix(0.71, -0.71, 0.71, 0.71, 8, 236)"
class="s1_1"
>28</text>

<text 
transform="matrix(0.71, -0.71, 0.71, 0.71, 8, 246)"
class="s1_1"
>24</text>

<text 
transform="matrix(0.71, -0.71, 0.71, 0.71, 8, 255)"
class="s1_1"
>28</text>

<text 
transform="matrix(0.71, -0.71, 0.71, 0.71, 8, 265)"
class="s1_1"
>30</text>

<text 
transform="matrix(0.71, -0.71, 0.71, 0.71, 8, 274)"
class="s1_1"
>30</text>

<text 
transform="matrix(0.71, -0.71, 0.71, 0.71, 8, 284)"
class="s1_1"
>30</text>

<text 
transform="matrix(0.71, -0.71, 0.71, 0.71, 8, 293)"
class="s1_1"
>32</text>

<text 
transform="matrix(0.71, -0.71, 0.71, 0.71, 8, 303)"
class="s1_1"
>32</text>

<text 
transform="matrix(0.71, -0.71, 0.71, 0.71, 8, 312)"
class="s1_1"
>32</text>

<text 
transform="matrix(0.71, -0.71, 0.71, 0.71, 8, 322)"
class="s1_1"
>25</text>

<text 
transform="matrix(0.71, -0.71, 0.71, 0.71, 8, 331)"
class="s1_1"
>22</text>

<text 
transform="matrix(0.71, -0.71, 0.71, 0.71, 8, 341)"
class="s1_1"
>22</text>

<text 
transform="matrix(0.71, -0.71, 0.71, 0.71, 18, 341)"
class="s1_1"
>29</text>

<text 
transform="matrix(0.71, -0.71, 0.71, 0.71, 27, 341)"
class="s1_1"
>33</text>

<text 
transform="matrix(0.71, -0.71, 0.71, 0.71, 37, 341)"
class="s1_1"
>27</text>

<text 
transform="matrix(0.71, -0.71, 0.71, 0.71, 46, 341)"
class="s1_1"
>23</text>

<text 
transform="matrix(0.71, -0.71, 0.71, 0.71, 56, 341)"
class="s1_1"
>19</text>

<text 
transform="matrix(0.71, -0.71, 0.71, 0.71, 65, 341)"
class="s1_1"
>18</text>

<text 
transform="matrix(0.71, -0.71, 0.71, 0.71, 75, 341)"
class="s1_1"
>17</text>

<text 
transform="matrix(0.71, -0.71, 0.71, 0.71, 84, 341)"
class="s1_1"
>19</text>

<text 
transform="matrix(0.71, -0.71, 0.71, 0.71, 94, 341)"
class="s1_1"
>20</text>

<text 
transform="matrix(0.71, -0.71, 0.71, 0.71, 103, 341)"
class="s1_1"
>19</text>

<text 
transform="matrix(0.71, -0.71, 0.71, 0.71, 113, 341)"
class="s1_1"
>18</text>

<text 
transform="matrix(0.71, -0.71, 0.71, 0.71, 122, 341)"
class="s1_1"
>16</text>

<text 
transform="matrix(0.71, -0.71, 0.71, 0.71, 132, 341)"
class="s1_1"
>14</text>

<text 
transform="matrix(0.71, -0.71, 0.71, 0.71, 141, 341)"
class="s1_1"
>12</text>

<text 
transform="matrix(0.71, -0.71, 0.71, 0.71, 151, 341)"
class="s1_1"
>12</text>

<text 
transform="matrix(0.71, -0.71, 0.71, 0.71, 160, 341)"
class="s1_1"
>11</text>

<text 
transform="matrix(0.71, -0.71, 0.71, 0.71, 170, 341)"
class="s1_1"
>10</text>

<text 
transform="matrix(0.71, -0.71, 0.71, 0.71, 180, 341)"
class="s1_1"
>11</text>

<text 
transform="matrix(0.71, -0.71, 0.71, 0.71, 189, 341)"
class="s1_1"
>11</text>

<text 
transform="matrix(0.71, -0.71, 0.71, 0.71, 200, 339)"
class="s1_1"
>9</text>

<text 
transform="matrix(0.71, -0.71, 0.71, 0.71, 210, 339)"
class="s1_1"
>9</text>

<text 
transform="matrix(0.71, -0.71, 0.71, 0.71, 218, 341)"
class="s1_1"
>12</text>

<text 
transform="matrix(0.71, -0.71, 0.71, 0.71, 227, 341)"
class="s1_1"
>10</text>

<text 
transform="matrix(0.71, -0.71, 0.71, 0.71, 237, 341)"
class="s1_1"
>10</text>

<text 
transform="matrix(0.71, -0.71, 0.71, 0.71, 246, 341)"
class="s1_1"
>12</text>

<text 
transform="matrix(0.71, -0.71, 0.71, 0.71, 256, 341)"
class="s1_1"
>10</text>

<text 
transform="matrix(0.71, -0.71, 0.71, 0.71, 267, 339)"
class="s1_1"
>8</text>

<text 
transform="matrix(0.71, -0.71, 0.71, 0.71, 277, 339)"
class="s1_1"
>8</text>

<text 
transform="matrix(0.71, -0.71, 0.71, 0.71, 286, 339)"
class="s1_1"
>6</text>

<text 
transform="matrix(0.71, -0.71, 0.71, 0.71, 296, 339)"
class="s1_1"
>4</text>

<text 
transform="matrix(0.71, -0.71, 0.71, 0.71, 305, 339)"
class="s1_1"
>2</text>

<text 
x="333" 
y="28" 
class="s1_1"
>2</text>

<text 
x="331" 
y="38" 
class="s1_1"
>20</text>

<text 
x="331" 
y="47" 
class="s1_1"
>27</text>

<text 
x="331" 
y="57" 
class="s1_1"
>32</text>

<text 
x="331" 
y="67" 
class="s1_1"
>36</text>

<text 
x="331" 
y="76" 
class="s1_1"
>38</text>

<text 
x="331" 
y="86" 
class="s1_1"
>40</text>

<text 
x="331" 
y="95" 
class="s1_1"
>42</text>

<text 
x="331" 
y="105" 
class="s1_1"
>44</text>

<text 
x="331" 
y="114" 
class="s1_1"
>45</text>

<text 
x="331" 
y="124" 
class="s1_1"
>46</text>

<text 
x="331" 
y="133" 
class="s1_1"
>45</text>

<text 
x="331" 
y="143" 
class="s1_1"
>35</text>

<text 
x="331" 
y="152" 
class="s1_1"
>30</text>

<text 
x="331" 
y="162" 
class="s1_1"
>30</text>

<text 
x="331" 
y="171" 
class="s1_1"
>33</text>

<text 
x="331" 
y="181" 
class="s1_1"
>37</text>

<text 
x="331" 
y="190" 
class="s1_1"
>35</text>

<text 
x="331" 
y="200" 
class="s1_1"
>28</text>

<text 
x="331" 
y="209" 
class="s1_1"
>21</text>

<text 
x="331" 
y="219" 
class="s1_1"
>20</text>

<text 
x="331" 
y="228" 
class="s1_1"
>20</text>

<text 
x="331" 
y="238" 
class="s1_1"
>23</text>

<text 
x="331" 
y="248" 
class="s1_1"
>24</text>

<text 
x="331" 
y="257" 
class="s1_1"
>30</text>

<text 
x="331" 
y="267" 
class="s1_1"
>26</text>

<text 
x="331" 
y="276" 
class="s1_1"
>30</text>

<text 
x="331" 
y="286" 
class="s1_1"
>29</text>

<text 
x="331" 
y="295" 
class="s1_1"
>22</text>

<text 
x="331" 
y="305" 
class="s1_1"
>23</text>

<text 
x="331" 
y="314" 
class="s1_1"
>21</text>

<text 
x="331" 
y="324" 
class="s1_1"
>20</text>

<text 
transform="matrix(0, -1, 1, 0, 322, 12)"
class="s1_1"
>8</text>

<text 
transform="matrix(0, -1, 1, 0, 313, 15)"
class="s1_1"
>12</text>

<text 
transform="matrix(0, -1, 1, 0, 303, 15)"
class="s1_1"
>16</text>

<text 
transform="matrix(0, -1, 1, 0, 293, 15)"
class="s1_1"
>22</text>

<text 
transform="matrix(0, -1, 1, 0, 284, 15)"
class="s1_1"
>44</text>

<text 
transform="matrix(0, -1, 1, 0, 274, 15)"
class="s1_1"
>48</text>

<text 
transform="matrix(0, -1, 1, 0, 265, 15)"
class="s1_1"
>48</text>

<text 
transform="matrix(0, -1, 1, 0, 255, 15)"
class="s1_1"
>52</text>

<text 
transform="matrix(0, -1, 1, 0, 246, 15)"
class="s1_1"
>50</text>

<text 
transform="matrix(0, -1, 1, 0, 236, 15)"
class="s1_1"
>46</text>

<text 
transform="matrix(0, -1, 1, 0, 227, 15)"
class="s1_1"
>26</text>

<text 
transform="matrix(0, -1, 1, 0, 217, 15)"
class="s1_1"
>30</text>

<text 
transform="matrix(0, -1, 1, 0, 208, 15)"
class="s1_1"
>35</text>

<text 
transform="matrix(0, -1, 1, 0, 198, 15)"
class="s1_1"
>35</text>

<text 
transform="matrix(0, -1, 1, 0, 189, 15)"
class="s1_1"
>33</text>

<text 
transform="matrix(0, -1, 1, 0, 179, 15)"
class="s1_1"
>26</text>

<text 
transform="matrix(0, -1, 1, 0, 170, 15)"
class="s1_1"
>36</text>

<text 
transform="matrix(0, -1, 1, 0, 160, 15)"
class="s1_1"
>38</text>

<text 
transform="matrix(0, -1, 1, 0, 151, 15)"
class="s1_1"
>37</text>

<text 
transform="matrix(0, -1, 1, 0, 141, 15)"
class="s1_1"
>37</text>

<text 
transform="matrix(0, -1, 1, 0, 132, 15)"
class="s1_1"
>30</text>

<text 
transform="matrix(0, -1, 1, 0, 122, 15)"
class="s1_1"
>33</text>

<text 
transform="matrix(0, -1, 1, 0, 112, 15)"
class="s1_1"
>36</text>

<text 
transform="matrix(0, -1, 1, 0, 103, 15)"
class="s1_1"
>34</text>

<text 
transform="matrix(0, -1, 1, 0, 93, 15)"
class="s1_1"
>34</text>

<text 
transform="matrix(0, -1, 1, 0, 84, 15)"
class="s1_1"
>49</text>

<text 
transform="matrix(0, -1, 1, 0, 74, 15)"
class="s1_1"
>36</text>

<text 
transform="matrix(0, -1, 1, 0, 65, 12)"
class="s1_1"
>8</text>

<text 
transform="matrix(0, -1, 1, 0, 55, 12)"
class="s1_1"
>6</text>

<text 
transform="matrix(0, -1, 1, 0, 46, 12)"
class="s1_1"
>3</text>

<text 
transform="matrix(0, -1, 1, 0, 36, 12)"
class="s1_1"
>0</text>

<text 
transform="matrix(0, -1, 1, 0, 27, 12)"
class="s1_1"
>0</text>



<!-- Any embedded fonts defined here -->
<style type="text/css" ><![CDATA[

@font-face {
	font-family: CMR5_7;
	src: url("fonts/CMR5_7.woff") format("woff");
}

]]></style>

</svg>
