<?xml version="1.0" encoding="UTF-8" standalone="no"?>
<!DOCTYPE svg PUBLIC "-//W3C//DTD SVG 1.1//EN"
"http://www.w3.org/Graphics/SVG/1.1/DTD/svg11.dtd">


<!-- Page 1 -->
<svg x="0" y="0" width="525" height="144" viewBox="0 0 525 144" version="1.1" xmlns="http://www.w3.org/2000/svg" xmlns:xlink="http://www.w3.org/1999/xlink"
style="display: block;margin-left: auto;margin-right: auto;">
<defs>

<style type="text/css"><![CDATA[

.g1_1{
fill: #B3E0B3;
stroke: #B3E0B3;
stroke-width: 0.6088194;
stroke-linecap: butt;
stroke-linejoin: miter;
}
.g2_1{
fill: none;
stroke: #000000;
stroke-width: 0.6088194;
stroke-linecap: butt;
stroke-linejoin: miter;
}
.g3_1{
fill: none;
stroke: #FF0000;
stroke-width: 0.6088194;
stroke-linecap: butt;
stroke-linejoin: miter;
}
.g4_1{
fill: #FFFFFF;
stroke: #000000;
stroke-width: 0.6088194;
stroke-linecap: butt;
stroke-linejoin: miter;
}


]]></style>

</defs>
<path d="M0,0
L0,144
L525,144
L525,0 Z " 
fill="#FFFFFF" stroke="none" />
<path d="M128.5,15.9c15.6,9.6,9.6,59.7,0,69.3c-9.6,9.6,-59.7,6,-69.3,0c-9.6,-6,6,-37.3,0,-43.3c-6,-6,-37.3,3.6,-43.3,0c-6,-3.6,-15.6,-22.4,0,-26c15.6,-3.6,97,-9.6,112.6,0Z" class="g1_1" />
<path d="M15.9,59.2c3.6,-9.6,22.4,-6,26,0c3.6,6,-6,37.3,0,43.3c6,6.1,37.3,-3.6,43.3,0c6,3.6,9.6,22.4,0,26c-9.6,3.6,-59.7,9.6,-69.3,0c-9.6,-9.6,-3.6,-59.7,0,-69.3Z" class="g1_1" />
<path d="M102.5,102.5c6.1,-3.6,37.3,12.1,43.3,0c6.1,-12,-3.6,-74.6,0,-86.6c3.7,-12,22.4,-15.6,26,0c3.6,15.6,9.6,97,0,112.6c-9.6,15.6,-59.6,3.6,-69.3,0c-9.6,-3.6,-6,-22.4,0,-26Z" class="g1_1" />
<path d="M28.9,115.5l0,-43.3" class="g2_1" />
<path d="M28.9,115.5l43.3,0" class="g2_1" />
<path d="M28.9,28.9l43.3,0" class="g2_1" />
<path d="M72.2,72.2l0,-43.3" class="g2_1" />
<path d="M72.2,72.2l43.3,0" class="g2_1" />
<path d="M72.2,28.9l43.3,0" class="g2_1" />
<path d="M115.5,72.2l0,-43.3" class="g2_1" />
<path d="M115.5,115.5l43.3,0" class="g2_1" />
<path d="M158.8,115.5l0,-43.3" class="g2_1" />
<path d="M158.8,72.2l0,-43.3" class="g2_1" />
<path d="M28.9,72.2l0,-43.3" class="g3_1" />
<path d="M28.9,72.2l43.3,0" class="g3_1" />
<path d="M72.2,115.5l0,-43.3" class="g3_1" />
<path d="M72.2,115.5l43.3,0" class="g3_1" />
<path d="M115.5,115.5l0,-43.3" class="g3_1" />
<path d="M115.5,72.2l43.3,0" class="g3_1" />
<path d="M115.5,28.9l43.3,0" class="g3_1" />
<path d="M32.2,115.5c0,-1.8,-1.5,-3.2,-3.3,-3.2c-1.8,0,-3.3,1.4,-3.3,3.2c0,1.8,1.5,3.3,3.3,3.3c1.8,0,3.3,-1.5,3.3,-3.3Z" class="g4_1" />
<path d="M75.5,115.5c0,-1.8,-1.5,-3.2,-3.3,-3.2c-1.8,0,-3.2,1.4,-3.2,3.2c0,1.8,1.4,3.3,3.2,3.3c1.8,0,3.3,-1.5,3.3,-3.3Z" class="g4_1" />
<path d="M32.2,72.2c0,-1.8,-1.5,-3.3,-3.3,-3.3c-1.8,0,-3.3,1.5,-3.3,3.3c0,1.8,1.5,3.3,3.3,3.3c1.8,0,3.3,-1.5,3.3,-3.3Z" class="g4_1" />
<path d="M32.2,28.9c0,-1.8,-1.5,-3.3,-3.3,-3.3c-1.8,0,-3.3,1.5,-3.3,3.3c0,1.8,1.5,3.3,3.3,3.3c1.8,0,3.3,-1.5,3.3,-3.3Z" class="g4_1" />
<path d="M75.5,72.2c0,-1.8,-1.5,-3.3,-3.3,-3.3c-1.8,0,-3.2,1.5,-3.2,3.3c0,1.8,1.4,3.3,3.2,3.3c1.8,0,3.3,-1.5,3.3,-3.3Z" class="g4_1" />
<path d="M75.5,28.9c0,-1.8,-1.5,-3.3,-3.3,-3.3c-1.8,0,-3.2,1.5,-3.2,3.3c0,1.8,1.4,3.3,3.2,3.3c1.8,0,3.3,-1.5,3.3,-3.3Z" class="g4_1" />
<path d="M118.8,72.2c0,-1.8,-1.5,-3.3,-3.3,-3.3c-1.8,0,-3.2,1.5,-3.2,3.3c0,1.8,1.4,3.3,3.2,3.3c1.8,0,3.3,-1.5,3.3,-3.3Z" class="g4_1" />
<path d="M118.8,28.9c0,-1.8,-1.5,-3.3,-3.3,-3.3c-1.8,0,-3.2,1.5,-3.2,3.3c0,1.8,1.4,3.3,3.2,3.3c1.8,0,3.3,-1.5,3.3,-3.3Z" class="g4_1" />
<path d="M118.8,115.5c0,-1.8,-1.5,-3.2,-3.3,-3.2c-1.8,0,-3.2,1.4,-3.2,3.2c0,1.8,1.4,3.3,3.2,3.3c1.8,0,3.3,-1.5,3.3,-3.3Z" class="g4_1" />
<path d="M162.1,115.5c0,-1.8,-1.4,-3.2,-3.3,-3.2c-1.8,0,-3.2,1.4,-3.2,3.2c0,1.8,1.4,3.3,3.2,3.3c1.9,0,3.3,-1.5,3.3,-3.3Z" class="g4_1" />
<path d="M162.1,72.2c0,-1.8,-1.4,-3.3,-3.3,-3.3c-1.8,0,-3.2,1.5,-3.2,3.3c0,1.8,1.4,3.3,3.2,3.3c1.9,0,3.3,-1.5,3.3,-3.3Z" class="g4_1" />
<path d="M162.1,28.9c0,-1.8,-1.4,-3.3,-3.3,-3.3c-1.8,0,-3.2,1.5,-3.2,3.3c0,1.8,1.4,3.3,3.2,3.3c1.9,0,3.3,-1.5,3.3,-3.3Z" class="g4_1" />

</svg>
